<?xml version="1.0" standalone="no"?>
<!DOCTYPE svg PUBLIC "-//W3C//DTD SVG 20010904//EN"
 "http://www.w3.org/TR/2001/REC-SVG-20010904/DTD/svg10.dtd">
<svg version="1.0" xmlns="http://www.w3.org/2000/svg"
 width="1161.000000pt" height="1280.000000pt" viewBox="0 0 1161.000000 1280.000000"
 preserveAspectRatio="xMidYMid meet">
<metadata>
Created by potrace 1.15, written by Peter Selinger 2001-2017
</metadata>
<g transform="translate(0.000000,1280.000000) scale(0.100000,-0.100000)"
fill="#000000" stroke="none">
<path d="M5497 12714 c-7 -94 -2 -109 54 -187 34 -47 38 -94 10 -128 l-20 -24
-7 43 c-6 39 -11 45 -55 68 -51 25 -89 31 -89 14 0 -22 31 -83 70 -137 44 -62
49 -91 24 -153 -19 -48 -44 -54 -44 -9 0 42 -47 89 -90 89 l-32 0 27 46 c15
25 24 51 22 58 -3 7 -26 16 -52 19 -41 6 -52 3 -92 -24 -36 -25 -125 -57 -165
-59 -4 0 -3 12 2 26 6 14 10 44 10 66 0 35 -6 47 -47 87 l-46 46 -18 -40 c-33
-72 -34 -99 -4 -158 33 -64 29 -96 -14 -126 l-28 -20 -7 45 c-6 47 -59 134
-82 134 -6 0 -19 -11 -28 -25 -29 -44 -29 -76 -2 -130 37 -72 34 -92 -30 -181
-75 -104 -86 -133 -78 -194 4 -29 3 -50 -3 -50 -26 0 -123 137 -123 174 0 9
13 40 30 69 32 57 31 77 -3 143 -18 35 -55 70 -64 60 -4 -3 -9 -44 -11 -91 -3
-62 -8 -85 -18 -85 -14 0 -84 96 -84 115 0 6 14 24 30 40 17 16 35 46 41 65
14 46 -2 81 -71 151 l-49 50 -6 -28 c-3 -15 -12 -53 -20 -83 -7 -30 -11 -71
-8 -89 l6 -35 -42 33 c-49 39 -51 58 -11 96 55 53 62 123 19 207 -29 57 -46
49 -87 -42 -20 -44 -39 -80 -43 -80 -14 0 -59 90 -59 118 0 25 -9 36 -47 62
-47 31 -50 32 -132 26 -46 -3 -86 -7 -89 -10 -2 -3 1 -19 8 -36 16 -39 74 -90
103 -90 75 0 149 -50 162 -111 10 -46 -1 -47 -39 -3 -32 37 -37 39 -93 39 -41
0 -68 -6 -88 -19 l-29 -19 49 -45 c65 -58 99 -72 183 -72 61 0 74 -4 111 -31
47 -34 48 -48 1 -29 -16 7 -47 12 -69 12 -42 -1 -145 -47 -136 -61 3 -5 26
-23 52 -40 53 -35 89 -39 173 -16 30 8 67 12 82 9 26 -5 108 -84 108 -103 0
-19 -17 -20 -48 0 -18 10 -45 19 -60 19 -48 0 -189 -104 -180 -132 3 -8 33
-16 78 -20 73 -6 113 1 205 35 22 8 44 13 49 10 4 -3 17 -26 29 -52 11 -25 39
-71 62 -101 106 -136 108 -215 11 -333 -19 -24 -44 -64 -55 -90 -11 -26 -24
-47 -29 -47 -13 0 -32 71 -32 118 0 32 7 49 32 77 21 24 34 52 39 83 9 57 -7
129 -31 142 -14 8 -22 0 -45 -43 -15 -29 -33 -58 -39 -66 -6 -7 -9 -28 -7 -47
1 -19 -2 -34 -8 -34 -12 0 -29 29 -34 57 -7 39 -49 103 -77 118 -21 11 -52 15
-98 13 -90 -4 -93 -21 -18 -94 45 -43 62 -54 89 -54 35 0 77 -30 77 -54 0 -11
-7 -11 -41 1 -37 12 -44 12 -66 -2 -27 -18 -40 -46 -49 -107 l-7 -41 39 7 c21
4 59 16 83 27 47 21 86 25 96 10 3 -6 9 -41 14 -78 5 -39 20 -91 35 -121 14
-28 26 -56 26 -61 0 -15 -28 -3 -80 34 -25 18 -103 65 -175 104 -140 78 -179
109 -231 185 l-33 50 39 43 c34 36 40 49 40 85 0 48 -57 163 -80 163 -14 0
-34 -68 -48 -160 l-8 -50 -37 37 c-41 40 -44 55 -22 98 9 16 18 50 21 75 7 44
6 45 -59 112 -82 84 -91 80 -90 -42 1 -97 -12 -111 -49 -49 -14 24 -38 44 -70
59 -46 21 -53 22 -106 10 -116 -28 -115 -25 -32 -83 61 -43 80 -52 117 -52 53
0 59 -23 10 -44 -21 -8 -40 -27 -50 -49 -32 -66 -27 -68 109 -36 97 24 127 22
162 -12 24 -22 24 -47 1 -40 -65 16 -90 13 -145 -20 -58 -35 -82 -63 -64 -74
6 -4 44 -9 84 -12 54 -4 86 -1 125 12 29 9 62 14 74 11 26 -6 153 -184 140
-196 -7 -7 -62 -14 -183 -22 -34 -3 -35 -1 -38 33 -6 78 -88 108 -181 69 -28
-13 -50 -28 -48 -33 9 -28 96 -88 138 -95 62 -11 57 -31 -25 -87 l-69 -47 -25
27 c-23 25 -30 27 -80 22 -41 -4 -62 -12 -81 -31 l-25 -26 28 -29 c16 -17 42
-33 57 -36 44 -10 45 -24 6 -60 -19 -18 -45 -51 -56 -74 -37 -71 -44 -58 -60
115 -6 55 -17 129 -25 165 -8 35 -16 92 -19 127 l-4 62 33 -6 c27 -5 38 -1 58
19 34 34 50 96 36 147 -15 54 -25 57 -44 11 -15 -39 -58 -80 -64 -62 -2 5 8
38 22 74 14 35 26 71 26 81 0 33 -39 92 -77 119 -66 45 -73 40 -73 -56 0 -72
3 -87 26 -120 26 -38 30 -87 7 -94 -6 -2 -17 13 -23 34 -23 71 -69 103 -150
103 -27 0 -50 -2 -50 -5 0 -4 7 -20 16 -36 8 -17 14 -40 12 -52 l-3 -22 -22
24 c-30 32 -47 71 -78 176 -22 73 -26 103 -21 157 5 70 22 119 43 125 7 3 26
-23 43 -57 27 -54 38 -64 83 -86 78 -36 146 -29 108 11 -5 6 -19 38 -31 73
-22 59 -40 82 -100 124 l-25 17 28 26 c38 34 49 32 72 -17 15 -33 31 -49 69
-67 46 -23 156 -42 156 -27 0 23 -55 107 -84 130 -20 15 -34 31 -31 35 2 5 32
11 66 15 91 9 145 44 175 112 13 30 24 64 24 75 0 19 -1 19 -42 -5 -24 -13
-61 -28 -83 -31 -30 -6 -52 -20 -85 -55 -49 -51 -100 -71 -100 -38 0 10 6 21
14 24 8 3 19 19 25 36 12 33 15 146 5 172 -10 26 -34 19 -34 -9 0 -16 -16 -43
-43 -73 -64 -69 -77 -92 -77 -134 0 -32 -5 -41 -37 -63 -21 -14 -47 -32 -59
-40 -21 -15 -21 -14 -27 49 -9 96 -28 133 -79 156 -76 34 -78 32 -71 -67 5
-89 9 -98 68 -179 14 -19 13 -25 -18 -77 -24 -40 -36 -74 -41 -117 -4 -36 -12
-60 -19 -60 -7 0 -38 38 -70 83 -32 45 -71 99 -87 121 l-30 39 30 34 c24 27
30 43 30 82 0 50 -23 121 -39 121 -22 0 -70 -54 -91 -102 l-22 -52 -24 27
c-29 34 -30 49 -3 107 12 25 21 64 21 88 0 46 -38 152 -54 152 -16 0 -59 -49
-74 -87 -13 -30 -14 -44 -3 -80 6 -24 9 -46 6 -50 -4 -3 -47 17 -96 46 -101
58 -138 63 -211 30 -49 -22 -90 -56 -90 -74 0 -16 84 -39 132 -38 21 1 40 -2
42 -6 3 -5 -12 -22 -34 -40 -22 -18 -40 -38 -40 -45 0 -8 26 -21 62 -31 51
-14 83 -16 165 -11 l102 7 38 -35 c39 -37 32 -47 -15 -22 -50 26 -98 29 -157
11 l-56 -18 26 -27 c15 -16 59 -42 99 -58 65 -27 76 -29 117 -20 67 15 95 4
161 -63 63 -64 71 -90 39 -130 -33 -43 -45 -74 -42 -112 1 -22 -2 -37 -7 -35
-5 1 -65 31 -133 66 -149 75 -221 89 -269 53 -34 -24 -52 -27 -44 -6 17 44
-45 28 -114 -30 -16 -14 -33 -25 -36 -25 -13 0 -5 27 21 65 38 55 36 142 -5
200 -35 50 -72 60 -72 18 0 -15 -9 -41 -20 -58 -25 -38 -25 -60 2 -124 17 -42
19 -60 12 -89 -13 -54 -38 -48 -71 18 -22 44 -39 62 -83 88 l-55 33 -3 -26
c-4 -33 14 -118 34 -161 11 -23 31 -40 70 -58 l54 -26 0 -70 c0 -38 -4 -70 -9
-70 -4 0 -26 12 -47 26 -49 34 -90 46 -131 38 -38 -7 -113 -69 -113 -93 0 -26
88 -46 200 -46 l94 0 38 -70 c21 -38 46 -77 55 -87 26 -29 8 -33 -59 -13 -35
10 -98 28 -140 39 -69 19 -83 27 -125 73 -51 55 -132 99 -193 105 -30 2 -35 0
-32 -17 6 -33 76 -109 110 -120 21 -6 32 -16 32 -27 0 -15 -9 -18 -55 -18 -30
0 -74 -5 -99 -12 -40 -11 -47 -9 -89 15 -67 40 -139 38 -198 -5 -24 -17 -47
-36 -51 -42 -12 -18 4 -28 36 -22 21 4 44 0 71 -14 22 -11 50 -20 63 -20 29 0
32 7 -71 -121 -86 -105 -107 -146 -107 -204 0 -44 1 -45 33 -45 18 0 53 10 77
23 l45 22 6 90 c6 93 28 155 56 155 17 0 16 -10 -2 -53 -15 -37 -11 -63 21
-130 11 -23 24 -37 33 -35 26 5 78 126 86 198 4 36 11 73 17 83 9 18 101 67
126 67 24 0 11 -29 -26 -56 -52 -38 -71 -66 -78 -118 -6 -37 -4 -47 10 -52 24
-9 86 43 116 99 36 65 68 96 112 107 43 12 63 8 227 -47 97 -33 109 -34 165
-25 l60 9 41 -38 c22 -20 53 -41 68 -44 15 -4 26 -12 24 -18 -2 -6 -55 -30
-118 -52 -96 -35 -118 -47 -136 -75 -28 -40 -29 -81 -5 -103 38 -35 94 -9 155
72 57 75 102 111 139 111 l31 0 -50 -48 c-35 -33 -57 -66 -72 -105 -11 -32
-21 -62 -21 -67 0 -18 24 -11 80 23 41 25 67 51 105 107 53 78 86 104 148 115
33 7 37 5 37 -14 0 -16 -6 -21 -28 -21 -42 0 -122 -90 -122 -138 0 -25 -6 -25
92 -6 19 4 57 30 99 70 67 63 69 64 123 64 65 0 134 -24 201 -70 60 -41 85
-66 85 -84 0 -23 -116 9 -177 49 -29 19 -64 35 -78 35 -52 0 -95 -74 -95 -162
0 -31 4 -38 20 -38 11 0 20 5 20 10 0 6 21 24 47 40 46 30 83 39 83 21 0 -17
-83 -77 -142 -104 -82 -37 -93 -62 -74 -173 8 -47 18 -89 21 -92 4 -4 35 22
68 58 51 53 64 75 74 119 16 67 49 121 74 121 26 0 24 -19 -7 -51 -33 -35 -35
-85 -5 -150 35 -77 44 -78 83 -12 44 77 47 90 36 157 -8 42 -7 60 2 71 19 23
78 18 126 -10 71 -41 115 -122 144 -260 5 -27 20 -71 31 -97 20 -42 31 -51
109 -93 85 -45 118 -73 254 -219 42 -45 46 -66 12 -66 -18 0 -29 10 -43 38
-42 81 -140 108 -202 56 -17 -14 -31 -31 -31 -38 0 -6 23 -17 52 -24 29 -6 59
-19 67 -27 14 -13 6 -15 -66 -15 l-81 0 -20 48 c-25 58 -55 87 -111 107 -58
20 -75 19 -121 -7 -48 -27 -51 -45 -10 -59 26 -10 79 -74 68 -84 -2 -3 -31 1
-64 7 -57 10 -65 9 -117 -15 -61 -28 -140 -95 -163 -138 -20 -39 -18 -42 19
-23 23 13 59 18 127 18 75 1 101 5 120 19 14 10 41 29 60 43 22 16 45 24 64
22 45 -5 41 -21 -9 -46 -53 -25 -84 -80 -85 -146 0 -38 0 -38 23 -22 12 9 43
27 69 41 25 13 70 51 99 84 59 68 83 81 142 81 l42 -1 -53 -47 c-50 -45 -53
-52 -59 -105 -7 -72 5 -78 81 -44 44 20 62 36 85 74 52 83 59 91 111 108 42
14 56 15 80 5 45 -19 102 -87 155 -186 27 -49 64 -114 83 -144 19 -30 50 -86
69 -125 l34 -70 -2 -170 c-3 -208 3 -249 52 -347 22 -43 39 -80 39 -83 0 -9
-124 -5 -182 5 -31 6 -96 26 -145 45 -48 19 -96 35 -106 35 -27 0 -79 30 -74
43 2 6 23 15 46 19 50 9 105 47 126 88 26 50 22 53 -57 47 -61 -4 -123 -23
-179 -54 -9 -5 -30 47 -24 58 4 5 31 9 62 9 47 0 61 5 94 31 22 17 46 44 54
60 19 35 19 78 1 85 -18 7 -112 -36 -167 -75 l-44 -33 -3 37 c-3 37 -1 42 66
141 31 45 33 54 30 111 -2 34 -7 66 -12 70 -13 13 -79 -32 -110 -75 -22 -32
-29 -53 -33 -108 -8 -129 -16 -137 -67 -78 -31 35 -120 78 -190 91 -26 5 -28
4 -21 -18 13 -45 66 -128 96 -153 21 -18 42 -26 69 -26 46 0 86 -31 96 -74 l7
-29 -52 7 c-68 9 -125 -8 -183 -54 l-47 -37 20 -19 c17 -16 37 -19 108 -18 53
0 103 6 129 16 l43 16 66 -68 c36 -37 66 -71 67 -75 1 -4 -74 -8 -166 -7 -127
1 -173 4 -196 16 -56 29 -222 231 -222 270 0 6 -25 60 -55 119 -54 106 -67
150 -51 175 11 18 19 15 75 -19 43 -27 57 -31 96 -27 28 4 59 16 81 33 33 25
35 29 20 40 -26 19 -154 58 -170 52 -18 -7 -43 20 -30 32 5 5 31 14 58 20 90
22 160 70 168 116 3 18 -4 21 -82 26 -46 4 -90 5 -96 2 -7 -2 -35 -31 -64 -64
-28 -32 -55 -59 -59 -59 -5 0 -11 31 -14 69 -6 74 -22 114 -56 145 -20 18 -21
18 -31 -10 -6 -16 -14 -56 -17 -89 -5 -55 -3 -65 26 -111 17 -28 31 -63 31
-77 0 -34 -20 -77 -36 -77 -7 0 -33 37 -58 83 -53 97 -71 118 -151 182 -130
106 -245 231 -245 269 0 19 2 19 50 5 40 -12 90 -6 90 11 0 22 -83 99 -140
129 -60 32 -69 46 -50 82 17 30 37 23 62 -23 13 -24 37 -49 53 -57 38 -18 115
-25 135 -12 12 8 10 15 -15 41 -16 17 -50 45 -77 63 -26 17 -50 38 -52 45 -10
22 48 13 89 -15 35 -24 50 -27 120 -28 l80 0 3 35 c3 52 -17 82 -68 102 -56
21 -100 22 -147 3 -44 -19 -82 -19 -89 -2 -3 8 11 37 31 66 37 56 42 79 24
130 -15 43 -39 40 -88 -15 -51 -55 -80 -116 -81 -168 0 -28 -10 -54 -36 -92
-19 -30 -37 -54 -39 -54 -2 0 -16 24 -33 53 -23 41 -43 60 -93 90 -35 20 -69
37 -76 37 -17 0 -16 -25 2 -88 19 -64 52 -103 120 -144 52 -31 65 -49 65 -95
0 -12 9 -42 20 -67 10 -25 15 -46 11 -46 -29 0 -162 54 -206 84 -64 42 -95 81
-151 188 l-41 81 44 43 45 43 -4 70 c-3 58 -8 75 -27 94 l-22 22 -35 -40 c-19
-21 -37 -49 -39 -62 -3 -13 -7 -34 -10 -48 -3 -14 -10 -25 -15 -25 -6 0 -36
25 -67 56 -55 56 -56 57 -43 88 7 17 15 56 17 87 4 52 2 58 -36 107 -51 64
-87 90 -103 74 -7 -7 -12 -36 -12 -64 -1 -42 5 -61 26 -93 16 -22 28 -47 28
-57 0 -15 -8 -13 -62 12 -35 17 -75 30 -89 30 -14 0 -36 11 -49 25 -12 13 -38
29 -57 36 -28 9 -39 8 -66 -8 -30 -18 -107 -108 -107 -126 0 -10 124 2 158 14
38 14 101 10 135 -8 l32 -18 -55 -5 c-63 -6 -83 -16 -123 -58 l-28 -30 32 -11
c47 -16 116 -13 184 8 74 23 99 16 156 -47 45 -48 41 -62 -13 -43 -65 23 -130
9 -172 -38 -15 -17 -16 -23 -6 -36 10 -12 37 -15 127 -15 143 0 171 -10 216
-82 19 -29 38 -64 42 -77 l7 -24 -71 6 c-85 7 -141 31 -159 69 -7 14 -28 40
-47 57 -34 29 -40 31 -121 31 -102 0 -104 -7 -18 -67 32 -23 59 -47 59 -54 0
-18 -155 -25 -186 -8 -37 20 -98 28 -138 18 -92 -23 -111 -31 -111 -44 0 -20
44 -41 118 -55 35 -7 61 -17 59 -23 -1 -5 -34 -28 -72 -49 -39 -22 -80 -49
-93 -61 -24 -23 -42 -74 -42 -125 0 -33 24 -92 38 -92 4 0 31 24 60 53 41 41
56 66 67 106 7 29 21 62 31 72 19 21 49 26 40 7 -29 -71 -32 -158 -5 -158 24
0 67 60 98 135 36 88 62 120 104 130 38 10 37 -19 -2 -39 -44 -23 -93 -136
-58 -136 6 0 39 13 72 28 47 23 68 40 95 81 l35 52 80 -6 c95 -8 175 -30 219
-61 77 -56 119 -76 193 -90 43 -8 95 -19 116 -25 46 -12 51 -39 7 -39 -16 0
-53 -9 -82 -20 -29 -11 -60 -20 -68 -20 -8 0 -28 18 -43 40 -63 88 -183 107
-253 39 -36 -34 -89 -108 -82 -114 2 -2 23 5 47 16 52 23 118 25 167 4 42 -17
39 -25 -18 -55 -24 -12 -67 -40 -97 -63 -52 -38 -56 -40 -85 -27 -74 32 -204
-4 -260 -73 -19 -24 -40 -55 -46 -71 l-11 -29 63 5 c40 4 88 17 132 37 38 17
73 28 78 23 12 -12 -46 -81 -119 -141 -35 -28 -66 -63 -69 -76 -5 -20 22 -221
32 -233 1 -2 29 24 62 57 l60 60 -5 93 c-6 91 -5 94 22 126 30 36 63 45 45 13
-17 -33 -12 -119 11 -172 12 -27 27 -49 33 -49 6 0 22 28 36 63 19 49 25 82
26 158 2 85 5 101 28 135 31 48 116 107 145 102 22 -3 22 -3 -3 -37 -17 -22
-26 -48 -26 -70 0 -54 24 -136 41 -138 8 -2 31 26 55 65 46 74 64 121 64 163
0 57 110 112 172 86 18 -8 51 -17 72 -21 108 -20 217 -110 276 -226 30 -58 51
-84 92 -116 62 -47 136 -140 140 -175 3 -24 2 -24 -78 -21 -92 2 -159 -16
-238 -67 -65 -40 -94 -40 -147 5 -52 43 -88 62 -159 84 -52 17 -55 19 -66 64
-7 26 -18 53 -24 61 -14 17 -73 35 -115 35 -38 0 -119 -47 -165 -95 -34 -36
-35 -37 -15 -51 20 -15 67 -15 168 2 29 5 37 3 37 -9 0 -9 -15 -20 -33 -26
-19 -7 -55 -25 -81 -41 -41 -27 -53 -29 -99 -24 -74 8 -131 -23 -173 -94 -33
-54 -50 -125 -38 -156 6 -15 10 -14 38 13 17 16 49 37 71 46 22 9 59 35 82 58
24 22 45 38 49 35 3 -3 -7 -42 -22 -87 l-27 -80 -51 -11 c-86 -18 -218 -61
-270 -87 -45 -23 -56 -24 -125 -18 -42 4 -176 9 -299 10 -259 3 -258 3 -286
91 -10 33 -25 66 -32 75 -22 24 -172 65 -193 52 -27 -17 -23 -36 24 -98 55
-73 58 -101 13 -120 -40 -16 -51 -9 -67 44 -8 28 -29 55 -69 90 -61 55 -73 59
-92 36 -8 -9 -21 -13 -37 -9 -17 5 -31 0 -48 -16 l-24 -23 49 -44 c41 -37 49
-49 44 -69 -4 -14 -1 -31 6 -39 7 -9 10 -18 7 -22 -4 -3 -46 -7 -95 -8 -72 -2
-97 -7 -140 -29 -29 -14 -52 -30 -52 -35 0 -5 -16 -28 -35 -51 -33 -39 -53
-98 -41 -118 3 -6 44 2 98 19 75 23 98 35 118 61 71 90 110 112 110 61 -1 -16
-7 -39 -15 -53 -16 -28 -20 -126 -6 -134 5 -3 44 23 88 57 58 48 85 78 106
119 26 52 57 78 92 78 23 0 18 -31 -12 -75 -24 -34 -28 -52 -31 -122 -2 -46
-1 -83 2 -83 7 0 197 193 241 244 l30 35 95 2 c52 0 99 0 103 0 35 -4 -140
-165 -190 -175 -15 -2 -47 -8 -70 -11 -58 -9 -93 -38 -244 -204 -114 -125
-249 -305 -249 -332 0 -5 -19 -9 -43 -9 -76 0 -140 -26 -185 -74 -39 -42 -45
-57 -57 -141 -9 -65 3 -71 70 -38 43 22 66 43 94 83 40 60 68 79 57 39 -3 -13
-17 -64 -29 -114 l-24 -90 -76 -26 c-88 -30 -101 -39 -139 -98 -20 -33 -28
-57 -28 -92 l0 -47 57 15 c79 20 84 24 118 82 17 28 37 51 47 51 15 0 15 -5 2
-57 -7 -32 -13 -75 -14 -96 0 -21 -12 -61 -26 -89 -25 -49 -26 -58 -20 -138
12 -145 58 -211 95 -135 7 17 24 50 37 75 12 25 28 66 34 90 10 42 9 50 -19
110 -25 52 -31 78 -31 130 0 113 23 144 46 63 25 -87 97 -183 137 -183 18 0
19 7 15 95 l-4 94 -62 65 -62 64 0 71 c0 58 3 73 17 78 11 4 21 0 27 -12 23
-40 93 -109 123 -121 37 -16 91 -18 112 -5 12 8 8 17 -22 50 -20 23 -37 44
-37 49 0 4 16 20 35 35 19 15 44 46 55 67 32 63 44 52 57 -50 19 -146 95 -281
174 -309 l29 -10 -1 82 c0 104 -14 146 -58 172 -18 11 -49 34 -68 51 -30 25
-36 38 -41 82 -6 64 13 71 43 14 26 -49 109 -92 177 -92 32 0 48 4 48 13 0 21
-105 161 -130 174 -14 7 -44 17 -67 23 -33 8 -43 16 -52 42 -14 39 -14 89 -1
124 l11 27 24 -34 c63 -90 90 -110 167 -124 35 -7 38 -5 38 15 0 30 -48 116
-74 133 -12 8 -37 19 -58 26 -20 7 -48 23 -62 36 -22 20 -26 33 -26 78 0 93
55 142 177 157 l78 10 80 83 c80 84 163 137 212 137 29 0 29 -8 -2 -61 -14
-24 -25 -60 -25 -79 0 -37 33 -120 48 -120 4 0 16 26 26 57 19 58 62 113 90
113 21 0 20 -19 -3 -77 -10 -26 -22 -66 -26 -88 -9 -49 -17 -55 -81 -55 -86 0
-125 -50 -140 -179 -8 -71 -1 -75 65 -41 40 20 63 45 93 99 35 63 51 21 23
-58 -8 -23 -28 -62 -46 -87 -38 -55 -46 -108 -29 -187 l11 -57 66 63 c81 77
97 109 77 156 -16 38 -19 147 -4 156 5 3 24 -25 42 -62 24 -50 47 -79 86 -110
29 -24 58 -43 64 -43 14 0 5 125 -12 161 -7 15 -34 43 -61 64 -76 57 -88 85
-78 173 8 70 20 102 40 102 5 0 9 -19 9 -43 0 -54 18 -80 83 -117 71 -41 87
-40 87 8 -1 53 -30 110 -83 160 -64 60 -72 101 -28 146 63 65 269 121 279 75
1 -8 -9 -21 -23 -29 -15 -8 -41 -32 -58 -54 -27 -34 -32 -50 -35 -108 l-4 -68
28 10 c52 18 85 53 104 110 10 30 24 55 32 55 20 0 47 -84 47 -150 1 -69 27
-122 63 -129 13 -3 52 -7 88 -10 36 -3 77 -8 92 -12 27 -6 28 -4 28 28 0 54
-36 98 -112 138 -80 42 -106 64 -124 107 -16 36 -18 73 -6 73 5 0 29 -15 53
-34 24 -18 61 -37 82 -40 35 -7 37 -5 37 19 0 14 -7 39 -15 56 -9 16 -13 34
-10 39 3 6 50 10 105 10 96 0 100 1 187 45 71 35 105 61 168 124 64 65 91 85
144 107 76 30 116 28 196 -11 66 -32 111 -80 183 -195 l60 -95 105 -3 c126 -3
127 -7 31 -82 l-65 -51 -33 20 c-50 31 -92 27 -131 -12 -47 -47 -54 -94 -23
-155 29 -56 48 -63 66 -23 21 47 52 81 74 81 15 0 18 -4 13 -17 -4 -10 -15
-38 -23 -63 -25 -73 -31 -85 -63 -105 -38 -25 -55 -56 -63 -120 -13 -91 -13
-91 -52 -54 -32 31 -41 34 -107 37 -70 4 -127 -8 -127 -27 0 -5 23 -17 50 -27
28 -10 62 -31 77 -46 l27 -28 -100 0 -99 1 -32 44 c-35 47 -40 49 -166 60 -77
6 -75 10 -40 -75 23 -57 41 -70 93 -70 69 0 83 -21 41 -64 -18 -18 -54 -44
-81 -56 -54 -25 -85 -72 -97 -144 l-6 -37 73 35 c84 40 100 54 126 101 25 47
46 44 72 -10 18 -36 31 -50 68 -65 25 -11 48 -20 51 -20 12 0 -12 71 -43 123
-19 32 -34 62 -34 67 0 25 111 43 125 21 3 -6 -4 -25 -15 -43 -31 -51 -26 -86
20 -142 22 -26 40 -50 40 -52 0 -3 -53 -2 -119 2 -130 8 -214 -6 -320 -52 -82
-36 -121 -33 -165 16 -43 48 -45 68 -10 101 54 51 71 130 37 179 -24 35 -33
40 -80 40 -47 0 -52 -9 -28 -50 19 -33 20 -110 2 -110 -8 0 -22 18 -32 39 -10
22 -28 50 -41 62 -20 19 -29 21 -92 14 l-70 -7 -7 54 c-4 29 -13 60 -19 69
-21 30 -81 76 -107 82 l-27 7 -4 -78 c-6 -86 6 -118 47 -128 53 -13 7 -74 -55
-74 -55 0 -120 -73 -120 -134 0 -35 30 -106 44 -106 22 0 60 49 96 123 27 56
40 73 59 75 20 3 23 1 16 -15 -4 -10 -12 -30 -18 -44 -14 -34 -1 -93 27 -126
l24 -28 23 47 c12 26 26 45 29 43 4 -3 10 -22 13 -43 4 -20 12 -46 20 -56 12
-16 17 -13 75 38 35 31 67 56 72 56 9 0 75 -120 68 -124 -2 -2 -19 -15 -39
-29 -46 -35 -91 -35 -140 -2 -53 37 -100 42 -142 16 -43 -26 -53 -26 -102 1
-22 12 -64 25 -94 29 -47 7 -61 4 -104 -17 l-49 -25 23 -25 c41 -44 101 -66
158 -58 65 8 66 -2 7 -77 l-44 -56 -76 0 c-87 0 -111 -12 -160 -81 -27 -38
-28 -44 -16 -67 22 -40 46 -41 110 -1 32 20 63 36 69 36 19 0 12 -33 -24 -104
-39 -78 -41 -95 -21 -154 29 -82 86 -144 86 -93 0 10 11 43 25 73 30 65 31
100 4 144 -21 34 -23 85 -3 91 6 2 17 -9 23 -25 7 -16 29 -46 50 -66 l38 -37
6 28 c3 15 9 56 12 89 7 56 5 66 -20 107 -29 51 -28 68 10 110 33 34 46 27 34
-18 -7 -26 -6 -42 5 -63 15 -28 82 -82 103 -82 30 0 32 100 3 140 -36 50 -53
100 -39 116 21 26 74 17 119 -21 23 -19 53 -38 66 -41 28 -7 83 13 150 55 49
32 84 40 84 20 0 -31 -45 -77 -132 -135 -73 -48 -106 -76 -130 -114 -18 -28
-42 -52 -53 -54 -11 -2 -47 -9 -79 -15 -33 -6 -64 -15 -69 -20 -10 -10 -38
-143 -31 -150 2 -2 19 10 39 28 57 50 105 38 105 -26 0 -29 -5 -35 -51 -58
-43 -22 -54 -34 -79 -87 l-29 -60 20 -51 c11 -28 23 -55 26 -59 6 -11 33 10
33 26 0 6 14 40 31 76 28 59 32 63 42 45 8 -13 11 -59 9 -129 l-2 -109 48 -51
c27 -28 54 -62 61 -74 20 -37 36 -26 49 36 19 92 16 106 -34 168 -53 64 -74
101 -74 127 0 32 25 17 52 -33 19 -34 40 -56 67 -70 53 -26 61 -25 61 8 0 63
-21 102 -86 164 -61 59 -65 65 -62 102 4 50 23 57 37 13 14 -42 64 -91 113
-111 55 -23 68 -21 68 13 0 40 -37 89 -97 130 -129 89 -107 171 81 294 68 45
90 67 124 121 59 93 152 152 138 89 -4 -16 -8 -50 -10 -77 -4 -46 -7 -52 -52
-84 -64 -46 -70 -55 -94 -131 -34 -106 -25 -114 51 -50 27 22 54 55 61 75 20
55 40 40 55 -41 12 -64 12 -71 -4 -83 -114 -81 -108 -74 -107 -133 1 -54 37
-149 60 -156 6 -2 11 13 12 38 3 60 22 118 46 135 30 20 36 2 34 -94 -2 -96 8
-115 87 -169 53 -37 68 -38 73 -3 5 31 -41 148 -73 184 -26 30 -51 103 -40
115 4 3 15 -5 24 -19 44 -67 129 -135 147 -118 8 8 -24 116 -42 143 -8 11 -38
34 -67 51 -44 26 -54 37 -69 80 -19 56 -22 94 -8 94 5 0 26 -18 47 -41 21 -23
50 -47 66 -55 28 -15 93 -22 103 -11 12 11 -106 131 -153 157 -107 57 -88 197
33 255 34 16 40 16 108 0 111 -27 214 -72 304 -134 176 -119 202 -125 303 -72
38 20 82 34 118 38 56 5 60 4 76 -21 19 -29 61 -35 110 -16 34 13 145 -8 145
-27 0 -11 -20 -19 -101 -38 -15 -4 -39 -20 -55 -36 -33 -35 -74 -39 -74 -9 0
35 -44 70 -88 70 -66 0 -142 -73 -142 -135 0 -9 11 -9 43 3 47 17 117 10 117
-12 0 -12 -64 -64 -124 -100 l-32 -19 -57 26 c-70 34 -133 36 -172 5 -29 -23
-85 -104 -85 -124 0 -7 24 -14 63 -17 51 -4 71 -1 116 19 63 28 61 28 61 9 0
-8 -30 -43 -66 -77 -73 -70 -94 -102 -94 -148 0 -31 41 -123 60 -135 5 -3 30
13 55 36 l45 42 0 101 c0 103 4 116 43 145 16 13 17 12 7 -13 -5 -15 -10 -43
-10 -63 0 -48 30 -143 45 -143 18 0 64 72 79 122 10 32 11 59 4 107 -8 49 -7
70 3 88 13 25 66 59 76 49 3 -3 -2 -26 -11 -52 -19 -56 -20 -91 -5 -167 17
-83 30 -88 70 -25 34 52 34 54 34 170 0 108 2 118 23 141 46 49 104 64 267 72
120 5 167 3 235 -10 47 -9 118 -21 159 -26 151 -19 256 -58 431 -162 188 -112
390 -263 390 -292 0 -7 -18 -15 -42 -19 -24 -4 -70 -22 -103 -40 -87 -49 -166
-66 -305 -66 -141 0 -153 7 -125 69 29 65 23 104 -26 165 -29 36 -48 51 -55
45 -6 -5 -21 -36 -33 -68 -16 -43 -19 -70 -15 -105 10 -66 -15 -61 -67 15 -28
41 -52 66 -76 76 -43 17 -114 22 -120 7 -2 -5 23 -46 56 -91 50 -69 66 -83
108 -98 26 -10 56 -25 66 -33 16 -14 14 -16 -20 -32 -21 -9 -43 -23 -49 -31
-12 -15 -25 -119 -15 -119 4 0 22 11 42 24 19 13 51 31 70 39 19 8 50 29 69
46 27 25 41 31 60 26 44 -11 54 -28 37 -61 -8 -16 -26 -41 -41 -56 -22 -25
-32 -28 -92 -28 -49 0 -76 -5 -104 -21 -35 -20 -41 -30 -64 -103 -30 -92 -33
-154 -11 -196 14 -27 14 -33 0 -60 -8 -16 -15 -39 -15 -51 0 -20 4 -21 55 -17
42 4 66 13 101 38 26 18 49 29 54 24 12 -12 -6 -98 -26 -128 -35 -54 -15 -137
54 -225 l19 -24 32 67 c48 100 49 124 11 207 -31 68 -34 104 -8 93 7 -3 22
-24 33 -46 24 -51 61 -79 106 -81 32 -2 34 0 32 31 -2 46 -44 106 -98 138 -70
40 -87 86 -63 165 13 46 34 51 43 9 4 -16 18 -38 31 -49 24 -19 122 -46 132
-37 2 3 1 21 -2 41 -5 26 -26 57 -67 101 -52 56 -59 68 -59 105 0 37 6 48 48
89 49 49 105 70 189 70 25 0 53 12 95 40 84 56 93 54 58 -15 -11 -22 -20 -49
-20 -61 0 -25 -17 -34 -63 -34 -74 0 -141 -77 -141 -162 0 -26 3 -50 7 -54 8
-9 62 30 126 90 l53 51 -6 -55 c-8 -64 -14 -71 -64 -85 -64 -18 -124 -133
-106 -202 4 -13 11 -23 16 -23 6 0 39 29 73 65 58 59 63 63 69 42 10 -39 6
-87 -10 -118 -9 -18 -13 -41 -9 -58 9 -44 120 -141 160 -141 20 0 23 6 27 47
4 56 -18 110 -73 175 -21 26 -39 57 -39 70 1 21 3 20 33 -14 18 -20 52 -46 77
-57 45 -20 95 -28 88 -13 -43 98 -73 143 -123 186 -57 49 -57 49 -53 98 3 27
8 51 12 55 13 13 38 -25 43 -68 6 -48 24 -74 65 -95 36 -18 72 -18 88 2 21 25
-12 115 -55 151 -19 15 -50 41 -69 56 -19 15 -40 43 -46 63 -16 47 11 94 63
111 49 16 65 9 162 -72 132 -109 181 -160 236 -242 29 -43 87 -114 129 -158
48 -50 102 -121 143 -190 74 -122 190 -395 200 -470 12 -83 47 -145 120 -208
49 -44 75 -77 106 -136 l40 -77 -19 -31 c-10 -18 -20 -53 -22 -80 -4 -67 -26
-67 -61 0 -15 29 -40 60 -55 69 -26 15 -102 35 -102 26 0 -2 11 -33 25 -68 27
-70 51 -101 106 -136 29 -18 38 -31 42 -61 2 -21 8 -48 12 -60 15 -47 -24 -22
-93 60 -81 96 -88 109 -103 176 -8 38 -19 57 -45 78 -18 15 -50 41 -69 56 -41
34 -44 60 -14 120 12 23 22 54 21 69 -1 33 -26 85 -60 120 -20 22 -28 25 -39
16 -43 -35 -55 -113 -26 -173 9 -19 14 -37 11 -41 -9 -8 -147 75 -158 96 -5 9
-8 40 -8 68 2 58 -17 93 -65 122 -52 32 -142 23 -102 -10 15 -13 75 -118 75
-132 0 -19 -31 -5 -96 42 -57 42 -76 50 -112 50 -48 0 -100 -19 -121 -44 -13
-15 -10 -20 20 -47 54 -47 74 -52 159 -38 59 9 81 9 98 0 33 -18 27 -31 -14
-31 -43 0 -95 -30 -124 -70 l-21 -29 38 -11 c21 -5 62 -13 90 -16 50 -6 54 -5
93 30 22 20 47 36 55 36 26 0 115 -49 115 -64 0 -8 -22 -18 -59 -26 -41 -8
-67 -21 -84 -39 -24 -26 -54 -98 -44 -107 3 -3 24 0 47 6 40 11 44 10 71 -16
46 -44 39 -52 -43 -47 -84 6 -108 18 -143 73 -30 48 -66 68 -139 76 -67 8 -68
5 -27 -83 24 -50 35 -64 58 -68 42 -9 73 -23 73 -33 0 -5 -21 -15 -46 -22 -37
-11 -56 -11 -94 -1 -66 17 -82 6 -126 -81 -31 -61 -34 -73 -21 -85 25 -25 118
9 183 68 30 27 59 49 64 49 15 0 12 -23 -6 -48 -21 -31 -16 -126 8 -130 29 -5
99 68 130 136 33 73 56 88 121 78 53 -8 70 -33 29 -42 -68 -17 -142 -75 -142
-113 0 -15 115 -14 143 0 12 7 43 31 69 55 26 24 55 44 65 44 47 0 233 -111
295 -176 48 -51 111 -155 99 -167 -5 -5 -30 2 -60 17 -47 24 -51 29 -51 62 0
46 -50 99 -103 109 -71 14 -79 -26 -21 -102 35 -46 31 -53 -30 -53 -53 0 -55
1 -90 49 -26 37 -45 53 -72 60 -38 11 -121 4 -130 -10 -6 -11 63 -87 87 -94
10 -4 19 -12 19 -20 0 -17 -32 -25 -100 -25 -91 0 -133 -36 -146 -123 -6 -42
-4 -47 13 -47 47 0 112 33 158 80 63 64 83 65 50 4 -28 -53 -32 -92 -10 -100
8 -3 38 7 67 23 40 21 58 38 73 71 21 43 39 62 63 62 10 0 9 -5 -2 -22 -15
-21 -24 -138 -11 -138 20 0 68 37 118 89 41 43 65 61 83 61 33 0 97 -33 130
-67 29 -31 74 -119 74 -146 0 -10 20 -37 45 -59 50 -45 54 -64 26 -99 l-19
-24 -29 27 c-59 56 -105 53 -171 -12 -27 -27 -30 -35 -20 -48 10 -11 29 -13
90 -9 92 6 95 2 42 -66 l-36 -46 -45 31 c-25 17 -56 31 -69 31 -50 0 -120 -79
-99 -112 8 -14 76 -14 111 -1 17 7 31 7 37 1 13 -13 -41 -91 -78 -111 -16 -9
-40 -35 -53 -58 l-23 -42 25 -55 c14 -30 29 -55 33 -55 5 0 27 18 48 41 39 39
40 41 40 115 0 55 4 77 15 84 30 19 38 12 30 -27 -6 -26 -5 -45 6 -65 17 -33
91 -75 106 -60 16 16 -1 86 -33 137 -35 55 -37 100 -6 145 38 57 50 52 42 -19
-6 -55 -4 -66 16 -96 13 -19 27 -35 31 -35 4 0 19 23 34 51 l25 51 -21 54
c-23 56 -22 89 6 132 21 32 80 30 154 -8 61 -31 92 -64 129 -137 17 -33 21
-61 21 -129 0 -69 7 -108 32 -193 32 -103 32 -111 31 -276 -1 -95 -6 -183 -13
-199 -6 -16 -32 -56 -59 -90 -61 -78 -71 -97 -71 -140 0 -64 -51 -39 -76 36
-12 39 -32 69 -78 114 -34 33 -70 76 -81 94 -31 53 -59 64 -138 56 -37 -4 -67
-11 -67 -16 0 -5 12 -22 26 -39 17 -21 35 -31 54 -31 17 0 30 -7 34 -16 4 -9
5 -17 4 -18 -2 -1 -29 -14 -61 -29 -31 -15 -66 -27 -77 -27 -11 0 -37 -7 -58
-16 -31 -12 -41 -23 -51 -53 -27 -90 -5 -149 44 -117 53 35 97 81 121 127 25
50 56 68 91 55 14 -6 11 -12 -18 -42 -30 -31 -34 -41 -33 -83 2 -50 19 -95 34
-89 21 8 88 113 94 147 8 52 28 68 59 48 27 -17 57 -74 57 -106 0 -12 16 -39
37 -61 29 -33 36 -49 37 -85 1 -24 -2 -47 -6 -51 -4 -4 -36 6 -70 21 -85 38
-141 42 -197 13 -25 -13 -46 -28 -48 -34 -2 -6 19 -23 46 -37 65 -36 119 -36
160 -1 27 23 34 24 49 13 41 -33 41 -44 -3 -65 -43 -20 -75 -83 -75 -146 0
-71 10 -76 68 -39 36 23 55 43 66 71 9 22 20 40 25 40 6 0 28 -31 51 -68 49
-83 51 -123 14 -219 -25 -65 -27 -81 -35 -328 -10 -335 -21 -442 -53 -532 -53
-149 -66 -296 -57 -653 3 -135 3 -135 -48 -333 -28 -109 -51 -207 -51 -218 0
-19 16 -19 691 -19 l691 0 -6 38 c-3 20 -8 69 -11 107 -4 39 -13 104 -21 145
-11 54 -14 132 -12 275 4 321 2 374 -20 485 -32 160 -32 161 -37 535 -10 751
-5 1015 25 1190 7 40 7 99 0 180 -5 66 -12 174 -14 240 -4 97 -12 147 -41 260
-47 179 -45 223 11 315 70 112 138 137 226 81 48 -31 88 -78 88 -106 0 -22
-17 -53 -47 -84 -55 -60 -86 -181 -45 -181 52 1 132 61 132 100 0 26 21 90 29
90 14 0 51 -78 51 -108 0 -22 -13 -46 -46 -84 -65 -74 -101 -158 -78 -181 9
-9 56 12 82 36 12 11 25 38 28 59 10 62 35 46 59 -39 4 -15 -6 -50 -29 -102
-41 -89 -42 -98 -21 -169 11 -34 22 -53 36 -57 11 -4 22 -5 23 -3 29 42 66
112 76 141 15 49 9 81 -35 169 -19 40 -35 78 -35 85 0 26 30 12 66 -31 20 -24
54 -52 75 -61 36 -17 40 -17 63 -1 22 14 24 19 15 44 -18 47 -56 87 -123 131
-53 35 -75 58 -117 123 -28 44 -49 81 -47 84 3 2 30 -2 61 -8 68 -14 105 -4
126 34 14 24 14 28 -4 48 -10 11 -42 27 -70 35 -45 13 -59 14 -106 2 l-54 -14
-72 65 c-78 71 -80 82 -18 102 45 15 139 -1 206 -36 46 -23 71 -28 165 -34
107 -5 133 -13 156 -45 14 -18 8 -46 -23 -110 -26 -55 -29 -70 -23 -112 9 -62
11 -66 35 -49 41 28 69 78 69 123 0 48 13 55 47 23 32 -29 36 -53 19 -110 -8
-28 -13 -58 -10 -68 10 -29 49 -102 55 -102 3 0 15 18 27 39 18 32 20 44 12
66 -12 31 -13 75 -2 75 4 0 20 -10 35 -23 22 -17 29 -33 34 -75 7 -62 33 -94
106 -130 54 -27 67 -23 67 19 0 62 -56 141 -124 176 -40 20 -76 53 -76 70 0
17 31 16 102 -3 32 -9 61 -14 65 -10 11 10 -15 54 -41 71 -26 17 -102 22 -156
10 -21 -5 -35 0 -55 18 -42 35 -26 50 45 42 55 -6 59 -5 94 25 20 18 36 37 36
44 0 18 -91 51 -140 50 -25 0 -65 -6 -90 -13 -43 -13 -48 -13 -83 10 -20 13
-35 28 -34 34 2 5 24 21 50 35 25 14 58 32 74 41 15 9 42 20 60 23 26 6 35 3
50 -15 63 -78 77 -89 141 -113 37 -14 71 -26 75 -26 15 0 6 36 -21 85 -20 38
-41 58 -85 84 -53 32 -56 35 -42 51 20 22 64 31 97 22 14 -4 54 -38 88 -77 63
-70 88 -91 96 -82 3 2 5 25 6 51 1 51 -16 77 -64 102 -18 9 -25 20 -22 29 8
20 87 20 103 1 7 -8 31 -21 54 -29 40 -13 45 -12 91 12 28 14 51 31 53 36 4
12 -124 95 -147 95 -8 0 -25 -7 -38 -15 -28 -20 -102 -42 -125 -37 -35 7 -16
46 29 60 53 17 74 53 74 126 0 33 -4 56 -11 56 -37 0 -169 -125 -169 -160 0
-49 -28 -90 -75 -110 -26 -11 -49 -20 -51 -20 -13 0 0 51 21 82 14 20 25 48
25 62 0 25 25 54 195 230 33 34 81 76 107 94 42 29 57 33 141 39 155 10 207
-11 207 -82 0 -30 -5 -39 -31 -53 -64 -35 -86 -60 -107 -127 -35 -106 -28
-116 49 -67 33 22 51 43 73 90 16 34 35 63 43 66 20 8 33 -35 33 -110 l0 -64
-46 -28 c-38 -22 -53 -41 -86 -106 -21 -43 -37 -80 -35 -83 3 -2 21 -1 41 2
24 5 46 19 67 44 79 94 84 96 94 52 7 -34 -11 -74 -50 -111 -48 -45 -49 -54
-19 -146 15 -47 32 -83 38 -81 14 5 58 69 87 126 21 42 22 50 11 113 -7 38
-12 80 -12 93 0 37 27 31 47 -10 22 -47 83 -67 150 -49 41 11 35 34 -26 95
-46 46 -67 60 -100 65 -57 9 -71 23 -92 90 -25 79 -24 84 11 84 22 0 43 -12
74 -40 24 -22 47 -40 51 -40 14 0 -6 75 -32 118 -28 49 -69 78 -124 87 -41 7
-89 52 -89 84 0 32 131 41 235 17 52 -13 66 -22 110 -69 55 -61 159 -131 181
-123 37 14 -7 94 -70 126 -60 31 -67 45 -25 54 56 11 103 6 137 -14 29 -18 32
-24 32 -68 0 -63 47 -143 79 -135 17 4 21 13 21 50 0 24 -9 61 -20 83 -25 49
-25 50 0 50 34 0 73 -26 118 -79 33 -39 54 -54 94 -66 28 -8 53 -13 56 -10 2
2 1 25 -2 50 -7 41 -14 51 -69 95 -57 46 -66 49 -118 50 -56 0 -97 18 -86 37
4 6 26 15 50 21 68 17 114 81 96 131 -8 21 -14 23 -50 18 -54 -7 -113 -49
-148 -107 l-29 -48 -74 -4 c-40 -3 -77 -1 -83 4 -5 5 5 23 27 46 41 41 58 78
58 124 l0 30 -48 -7 -49 -6 -81 79 -81 79 32 16 c18 8 58 25 91 36 l58 21 37
-30 c53 -42 105 -48 170 -20 28 13 56 31 61 41 21 38 -97 94 -158 75 -35 -12
-35 13 1 49 41 41 76 51 135 37 34 -7 56 -7 89 3 48 15 93 41 93 54 0 11 -123
61 -148 61 -49 0 -98 -26 -158 -81 -60 -56 -94 -73 -94 -47 0 6 12 36 26 66
30 63 27 86 -17 137 -46 52 -61 47 -94 -36 l-27 -70 22 -62 c12 -34 23 -75 23
-92 2 -27 -4 -33 -52 -57 -52 -27 -101 -36 -101 -20 0 4 10 23 22 42 18 28 22
50 22 107 0 95 -10 105 -64 65 -67 -49 -75 -66 -75 -162 l0 -85 -98 -32 c-54
-17 -113 -43 -132 -57 -18 -14 -38 -26 -44 -26 -7 0 -11 27 -11 68 0 84 14
100 92 111 56 7 128 50 128 76 0 12 -43 25 -84 25 -11 0 -48 -14 -80 -30 -33
-17 -61 -28 -64 -26 -2 3 -1 22 4 43 4 21 7 50 6 64 -2 14 9 45 22 70 14 24
33 77 42 118 20 88 97 210 159 253 103 70 143 83 255 85 96 1 113 4 192 37
128 52 187 47 271 -25 45 -39 48 -45 44 -78 -2 -20 -15 -62 -27 -94 -19 -47
-21 -65 -14 -94 5 -20 14 -38 21 -40 6 -2 30 12 52 33 36 32 41 42 41 80 0 37
3 44 19 44 20 0 56 -38 66 -70 4 -11 -6 -40 -24 -72 -16 -29 -30 -69 -31 -88
-5 -92 3 -99 57 -45 32 32 35 40 30 75 -6 45 0 48 34 21 20 -16 24 -31 30
-100 6 -92 20 -118 88 -165 53 -39 64 -28 63 62 0 86 -14 114 -86 176 -80 68
-71 98 18 61 39 -16 131 -12 142 7 8 12 -23 46 -58 64 -15 8 -56 14 -93 14
-37 0 -76 5 -88 11 -26 14 -97 80 -97 91 0 13 44 8 64 -7 37 -28 156 -16 156
16 0 11 -89 64 -148 89 -47 20 -57 22 -91 10 -37 -12 -41 -11 -112 32 -41 25
-74 49 -74 54 0 17 71 44 117 44 40 0 53 -6 94 -41 65 -56 83 -66 132 -77 47
-11 49 -7 26 41 -10 21 -34 43 -66 61 -42 24 -48 30 -36 42 20 20 102 29 137
15 16 -7 43 -30 60 -51 31 -39 125 -100 155 -100 41 0 -7 98 -69 142 -25 18
-45 35 -45 39 0 4 20 11 44 14 36 6 56 1 114 -24 45 -20 87 -31 117 -31 l46 0
-18 31 c-37 62 -90 124 -117 137 -24 12 -33 11 -80 -12 -29 -14 -69 -26 -89
-26 -30 0 -34 3 -30 19 3 11 22 35 44 54 44 40 48 63 18 101 -29 37 -55 32
-104 -20 -43 -45 -47 -56 -60 -140 -5 -34 -12 -44 -41 -57 -19 -10 -46 -17
-60 -17 l-26 0 38 51 c29 40 39 63 42 105 l4 53 -29 -8 c-75 -22 -119 -69
-128 -139 -3 -26 -9 -53 -14 -61 -7 -13 -117 -45 -351 -101 -47 -11 -110 -27
-140 -35 -65 -18 -211 -20 -227 -4 -9 9 -6 23 12 57 24 44 22 70 -4 87 -6 3
-7 21 -4 40 7 46 -13 123 -43 162 -32 42 -30 49 11 63 19 6 44 23 55 37 41 52
50 146 15 159 -8 3 -46 -9 -84 -26 -54 -25 -72 -39 -80 -61 -5 -16 -13 -29
-16 -29 -13 0 -94 63 -99 76 -3 8 13 35 35 61 93 113 107 131 141 184 49 77
125 121 179 104 12 -4 52 -35 88 -69 72 -68 137 -96 185 -80 l26 9 -29 60
c-34 72 -68 95 -152 102 -47 5 -59 9 -59 23 0 33 137 55 173 28 9 -7 25 -33
35 -58 18 -43 111 -140 133 -140 22 0 32 49 19 95 -10 36 -22 52 -56 76 -43
30 -58 59 -29 59 8 0 38 -21 66 -46 51 -45 54 -46 101 -40 29 4 56 2 69 -5 21
-11 21 -10 15 27 -10 52 -28 79 -77 111 -39 26 -42 26 -87 13 -59 -17 -114
-19 -119 -4 -2 7 12 22 32 34 l37 23 -6 91 c-11 172 -13 191 -23 216 -19 44
-51 65 -104 66 -81 2 -93 4 -109 14 -25 17 24 50 74 50 45 0 105 38 92 58 -4
7 -30 19 -59 27 -122 35 -192 14 -216 -68 -13 -41 -19 -49 -50 -58 -20 -6 -50
-9 -66 -7 -28 3 -29 4 -11 18 56 46 66 60 66 92 0 66 -29 72 -100 20 -51 -37
-68 -62 -76 -110 -5 -33 -14 -49 -40 -69 l-34 -25 -45 41 c-24 22 -54 41 -66
41 -22 0 -22 -3 -3 -101 4 -22 -5 -35 -55 -82 -61 -56 -194 -137 -225 -137
-15 0 -17 8 -11 58 3 31 13 76 21 99 14 37 19 42 56 48 47 8 146 90 118 98 -8
2 -30 9 -49 15 -28 10 -38 9 -51 -3 -9 -8 -22 -15 -28 -15 -15 0 -16 35 -1 61
16 31 89 79 121 79 35 0 39 31 6 54 -36 25 -67 19 -104 -19 -18 -19 -38 -35
-44 -35 -22 0 -40 67 -34 124 5 41 3 59 -10 77 -23 33 -21 43 23 107 94 140
238 215 311 165 34 -23 40 -33 40 -68 0 -16 8 -41 18 -55 26 -37 110 -120 122
-120 6 0 10 26 10 60 0 54 -3 63 -35 99 -45 50 -44 61 5 61 74 0 87 -13 94
-94 13 -138 21 -189 32 -193 18 -6 72 63 85 107 11 37 10 46 -10 87 -25 52
-21 64 17 42 21 -11 30 -28 42 -78 13 -54 22 -70 59 -102 50 -45 66 -48 74
-17 8 27 -9 152 -23 179 -12 21 -45 40 -105 59 -22 7 -43 17 -46 23 -4 5 9 34
29 63 l36 54 56 -1 c33 0 85 -11 130 -27 85 -31 110 -58 130 -144 7 -29 21
-77 32 -105 15 -42 24 -53 42 -53 17 0 24 9 34 45 8 31 9 52 2 71 -14 35 -8
39 29 19 35 -18 37 -26 16 -85 -8 -23 -15 -63 -15 -89 0 -28 -8 -62 -20 -84
l-21 -39 23 7 c42 13 67 34 94 81 l27 46 15 -28 c13 -24 13 -33 -2 -79 -22
-71 -21 -88 15 -162 34 -72 44 -72 80 -2 29 58 25 114 -17 203 -19 43 -34 86
-32 97 3 19 6 18 46 -13 99 -75 106 -79 142 -76 44 4 43 21 -5 95 -28 43 -43
55 -90 72 -31 12 -73 21 -93 21 -30 0 -50 10 -100 50 -34 28 -62 55 -62 60 0
6 26 10 58 11 67 1 126 19 130 42 3 17 -101 81 -163 100 -32 9 -39 7 -86 -26
l-51 -36 -73 34 c-116 52 -115 52 -82 64 16 6 35 11 43 11 20 0 107 45 157 81
83 60 141 58 207 -6 44 -43 97 -65 155 -65 43 0 46 1 40 23 -17 56 -65 95
-147 121 -51 16 28 52 94 43 29 -4 49 -16 81 -49 23 -25 63 -59 90 -77 40 -27
48 -30 53 -16 15 37 -5 90 -46 125 -22 20 -40 39 -40 42 0 4 20 10 44 13 37 6
53 2 105 -25 76 -40 105 -37 183 17 57 38 85 73 75 91 -4 5 -60 15 -125 22
-117 12 -121 12 -185 -11 -36 -13 -69 -20 -73 -16 -4 3 11 26 33 50 23 24 46
53 52 65 13 25 4 29 -82 38 -57 6 -66 4 -89 -17 -14 -13 -34 -47 -43 -76 -22
-70 -49 -103 -85 -103 -16 0 -50 -10 -75 -22 -24 -12 -47 -19 -51 -15 -3 3 -1
20 5 38 6 18 11 46 11 63 0 35 -45 109 -63 103 -6 -2 -23 -26 -37 -53 -20 -39
-25 -61 -23 -111 l3 -62 -90 -51 c-93 -52 -177 -80 -240 -80 -57 0 -153 29
-180 55 -14 13 -38 27 -55 30 -56 12 -56 12 -43 39 17 39 43 41 102 10 61 -32
108 -28 153 11 l28 24 -58 25 c-32 14 -64 26 -73 26 -8 0 -24 5 -35 11 -19 10
-20 12 -4 29 18 20 49 34 111 49 57 15 83 47 94 117 13 77 13 114 -1 114 -19
0 -166 -111 -177 -133 -6 -12 -18 -40 -27 -62 -19 -49 -43 -75 -66 -75 -15 0
-16 5 -8 32 12 43 12 105 -1 128 -13 25 -63 59 -101 70 l-32 9 7 -37 c4 -20
11 -66 17 -101 5 -35 18 -79 29 -96 24 -38 26 -88 5 -105 -20 -16 -35 -4 -35
28 0 45 -50 98 -109 117 l-23 7 3 -80 c3 -64 9 -86 26 -109 70 -89 76 -103 65
-128 -16 -35 -72 -67 -202 -115 -187 -68 -213 -83 -270 -155 -62 -78 -143
-149 -195 -171 l-38 -15 7 43 c3 24 11 86 17 137 12 116 36 189 99 306 50 94
70 168 70 263 l0 54 36 -21 c19 -12 45 -21 57 -21 25 0 87 35 87 49 0 12 -57
45 -103 60 -48 16 -54 28 -28 54 18 18 24 20 39 9 39 -28 93 -52 114 -52 29 0
98 46 98 65 0 15 -68 55 -95 55 -9 0 -15 9 -15 25 0 29 9 30 65 10 22 -8 46
-15 54 -15 25 0 131 53 131 66 0 19 -48 73 -81 89 -45 24 -72 18 -113 -24 -39
-40 -77 -56 -94 -39 -5 5 -7 28 -5 51 3 30 -2 51 -16 75 -26 41 -44 41 -69 0
-32 -52 -35 -81 -16 -141 l17 -56 -26 -40 c-32 -48 -57 -54 -57 -13 0 57 -65
127 -112 120 -21 -3 -23 -8 -20 -52 1 -27 18 -87 38 -137 40 -99 55 -181 43
-243 -12 -65 -48 -154 -75 -184 l-24 -27 -20 24 c-25 30 -25 45 2 81 19 27 20
33 9 71 -12 40 -66 107 -77 97 -2 -3 0 -27 6 -53 18 -80 -10 -75 -55 9 l-29
56 22 29 c35 48 29 86 -22 137 -24 24 -48 44 -54 44 -14 0 -22 -36 -22 -108 0
-46 -3 -63 -12 -60 -7 2 -36 38 -64 79 l-50 74 -64 3 -63 3 17 -26 c13 -19 16
-37 11 -65 -5 -32 -3 -40 14 -49 11 -6 34 -11 51 -11 39 0 90 -21 114 -49 l19
-21 -41 0 c-55 0 -82 -26 -82 -80 0 -35 3 -40 23 -40 13 0 52 14 86 31 l63 32
26 -20 c28 -21 60 -68 52 -77 -3 -2 -26 1 -52 6 -40 10 -54 8 -87 -7 -22 -10
-47 -25 -56 -35 -13 -15 -12 -18 23 -34 65 -32 90 -36 134 -20 76 26 85 22
108 -52 42 -137 17 -209 -54 -153 -20 16 -25 26 -20 45 7 28 -21 66 -68 90
-26 14 -78 19 -78 9 0 -3 18 -38 40 -77 48 -84 43 -99 -23 -80 -40 11 -43 10
-68 -17 -15 -16 -32 -52 -39 -80 -17 -73 -3 -83 48 -37 22 20 43 33 45 29 3
-5 0 -27 -6 -50 -13 -50 4 -123 29 -123 13 0 52 73 102 193 22 51 82 28 82
-32 0 -38 -54 -151 -88 -186 -34 -34 -48 -40 -187 -84 -38 -12 -101 -41 -138
-63 -38 -22 -70 -38 -72 -36 -1 1 1 30 6 63 5 33 6 94 2 136 l-6 77 57 16 c56
17 58 18 86 79 15 34 31 77 34 95 5 29 3 32 -20 32 -37 0 -79 -25 -105 -62
-48 -69 -69 -66 -57 10 11 69 18 77 63 73 56 -4 102 30 120 92 8 28 15 59 15
69 0 19 -1 19 -27 1 -42 -28 -81 -43 -114 -43 -27 0 -29 2 -18 21 6 11 31 30
56 41 63 28 77 63 51 132 -10 28 -21 57 -24 65 -7 20 -44 -18 -96 -98 -35 -53
-44 -76 -48 -125 -4 -46 -9 -62 -22 -64 -10 -2 -19 6 -23 20 -4 13 -15 31 -24
42 -17 19 -83 56 -101 56 -17 0 -11 -92 9 -137 12 -25 35 -52 59 -68 43 -28
62 -60 62 -105 0 -38 -13 -38 -40 1 -21 29 -34 37 -89 54 -23 7 -24 6 -19 -43
6 -62 28 -98 73 -119 37 -18 60 -60 50 -92 -6 -18 -140 -101 -165 -101 -7 0
-9 16 -4 48 6 45 4 50 -34 92 -22 25 -43 42 -47 38 -4 -4 -10 -36 -12 -71 -4
-51 -1 -73 16 -112 22 -49 29 -125 11 -125 -5 0 -21 18 -35 40 -26 42 -52 54
-104 48 l-31 -3 29 -61 c31 -67 36 -71 96 -94 45 -18 53 -39 35 -95 -13 -40
-52 -65 -99 -65 -22 0 -46 14 -88 51 -69 60 -77 77 -69 149 8 81 37 155 95
244 107 164 141 259 161 451 6 55 17 122 25 149 8 27 15 75 15 106 0 31 5 83
11 115 6 32 12 153 14 269 3 225 19 478 31 498 26 45 86 105 133 135 53 34 56
35 81 19 65 -42 113 -58 153 -53 40 5 93 36 91 53 -3 14 -137 86 -171 91 -18
3 -33 9 -33 13 0 4 18 27 39 52 26 29 54 49 81 57 65 19 82 56 78 163 -2 48
-8 91 -12 95 -4 5 -39 -26 -77 -67 -53 -59 -69 -84 -74 -115 -3 -22 -8 -52
-11 -66 -6 -29 -59 -97 -69 -88 -3 4 -1 34 6 67 11 54 11 63 -5 87 -15 23 -20
25 -31 14 -19 -21 -52 -118 -60 -174 -11 -89 -14 -95 -62 -125 -57 -36 -63
-37 -63 -5 0 33 56 239 81 294 11 26 62 88 127 155 59 61 123 131 142 156 82
110 210 210 284 224 59 11 116 -10 167 -63 52 -54 77 -114 86 -207 l6 -62 -34
-7 c-56 -12 -118 -95 -119 -159 l0 -39 44 41 c44 40 81 63 124 76 20 7 22 4
22 -33 0 -51 -34 -81 -93 -81 -32 0 -46 -6 -71 -33 -29 -31 -62 -105 -51 -116
13 -12 119 23 150 51 19 16 39 28 44 26 6 -1 -1 -30 -15 -63 -20 -47 -24 -73
-21 -120 6 -111 59 -173 108 -129 22 20 59 85 59 105 0 6 -18 48 -40 92 -28
60 -38 90 -34 110 7 31 22 36 30 10 18 -57 37 -84 76 -106 51 -29 98 -42 98
-27 0 28 -89 170 -133 212 -38 37 -48 53 -45 74 5 42 24 39 58 -8 54 -74 131
-99 184 -57 14 11 26 24 26 29 0 14 -147 108 -195 125 -69 23 -103 43 -109 62
-3 10 -10 51 -16 92 -6 41 -13 84 -16 97 -5 19 -2 24 12 24 15 0 134 -29 142
-35 1 -1 -5 -18 -13 -38 -13 -32 -13 -41 -1 -70 7 -19 26 -44 42 -56 l29 -23
3 28 c6 65 35 164 47 164 22 0 45 -12 45 -23 0 -6 -9 -30 -21 -54 -34 -70 -4
-149 70 -188 l28 -14 12 77 c11 67 10 82 -3 115 -15 35 -15 37 2 37 33 0 62
-30 77 -83 30 -103 79 -148 181 -164 42 -7 43 3 9 98 -40 113 -65 138 -146
153 -36 6 -75 37 -62 49 3 4 29 7 56 7 74 0 112 23 143 86 15 30 24 57 21 60
-13 14 -112 -21 -154 -53 -57 -44 -102 -63 -145 -63 -64 0 -79 40 -21 54 44
11 71 33 93 76 17 34 27 90 16 90 -2 0 -34 -14 -72 -30 -52 -24 -83 -46 -126
-93 l-57 -62 -73 1 c-104 3 -298 76 -298 113 0 4 45 15 100 25 93 15 105 20
192 77 120 79 169 104 292 145 227 78 343 91 429 50 47 -23 64 -55 72 -137 4
-35 11 -77 17 -93 12 -30 116 -118 130 -110 4 3 8 31 8 62 0 55 -1 57 -55 108
-49 47 -55 57 -55 93 0 23 4 41 9 41 24 0 96 -94 136 -177 40 -83 45 -100 45
-163 0 -48 -4 -72 -12 -74 -7 -3 -25 -7 -40 -10 -34 -8 -58 -43 -65 -94 -8
-62 12 -69 81 -25 47 29 60 33 67 22 20 -31 5 -61 -45 -88 -64 -34 -92 -90
-76 -151 6 -22 19 -44 29 -49 15 -8 22 -4 39 28 25 44 59 77 69 67 4 -4 0 -29
-10 -55 -32 -91 -23 -112 69 -171 78 -49 86 -46 92 37 l4 58 -56 63 c-50 57
-69 92 -48 92 4 0 23 -18 42 -40 30 -34 44 -42 94 -51 39 -7 62 -7 69 0 13 13
-94 133 -156 173 -26 17 -52 39 -57 49 -11 20 -13 79 -3 79 4 0 28 -22 53 -50
41 -44 51 -50 86 -50 50 0 68 12 59 38 -10 32 -101 108 -146 121 -48 15 -84
61 -94 121 -4 24 -15 68 -25 97 -17 51 -17 53 1 53 10 0 40 -8 66 -19 26 -10
81 -26 121 -36 39 -9 72 -20 72 -23 0 -3 -11 -20 -25 -38 -38 -50 -45 -75 -29
-106 14 -27 107 -108 124 -108 5 0 6 47 3 104 -6 111 -1 126 39 105 52 -27 59
-38 43 -76 -19 -44 -6 -95 37 -147 52 -63 58 -53 71 123 3 43 17 48 53 18 l28
-24 -18 -47 c-31 -81 2 -165 91 -234 l33 -24 10 27 c18 46 12 112 -15 165 -14
27 -25 52 -25 55 0 15 24 0 74 -45 37 -34 60 -66 72 -98 34 -91 68 -111 207
-122 164 -13 168 -1 41 122 -53 51 -106 98 -117 105 -12 7 -47 12 -78 13 -45
0 -60 4 -77 23 -30 32 -28 37 19 37 46 0 109 33 109 57 0 25 -55 71 -95 79
-26 4 -61 1 -105 -10 -58 -15 -72 -16 -120 -4 -43 11 -55 19 -55 34 0 17 8 19
67 22 60 3 70 6 92 32 27 33 62 117 53 127 -4 3 -26 -2 -50 -11 -23 -9 -53
-16 -65 -16 -41 0 -89 -27 -111 -63 -29 -48 -70 -64 -122 -48 -54 16 -49 41
12 58 25 7 56 24 69 38 25 26 43 104 32 135 -7 19 -13 17 -90 -32 -48 -30 -96
-69 -115 -94 -37 -50 -45 -51 -150 -25 -98 26 -100 27 -318 167 -109 70 -143
84 -204 84 -48 0 -55 3 -55 20 0 24 188 217 199 204 4 -5 13 -40 19 -77 6 -38
16 -74 22 -82 10 -12 139 -50 146 -42 2 2 -7 19 -21 37 -14 19 -34 58 -45 88
-12 30 -30 66 -40 80 -27 34 -25 41 15 58 43 18 55 12 55 -27 0 -47 26 -97 62
-119 53 -32 57 -28 42 53 -19 104 -18 107 14 107 44 0 53 -11 42 -50 -18 -64
-13 -109 18 -139 28 -27 107 -59 119 -48 3 4 -1 24 -9 44 -26 65 -51 144 -46
149 11 11 36 -9 56 -44 43 -77 61 -87 179 -90 l105 -4 -7 24 c-3 12 -35 51
-71 86 l-64 62 -70 0 c-58 0 -71 3 -80 19 -9 18 -4 21 44 35 42 12 61 25 90
60 20 24 36 52 36 62 0 43 -234 -20 -280 -76 -21 -25 -32 -30 -67 -30 -55 0
-58 25 -7 58 50 33 110 172 73 172 -24 0 -117 -52 -147 -82 -17 -19 -40 -58
-50 -87 -18 -52 -21 -55 -68 -69 -27 -7 -54 -18 -60 -23 -21 -17 -22 3 -3 58
10 31 19 73 19 94 0 36 -36 129 -50 129 -18 0 -49 -53 -71 -118 l-24 -73 23
-39 c41 -71 34 -89 -78 -208 -55 -58 -116 -116 -136 -129 -37 -26 -241 -96
-310 -108 -45 -7 -51 -3 -84 52 -11 18 -37 44 -60 58 -22 14 -40 28 -40 32 0
3 7 30 16 59 17 51 16 52 -5 83 -23 33 -77 66 -84 53 -17 -28 -16 -85 2 -131
l19 -51 -24 0 c-15 0 -41 17 -69 45 -49 48 -93 63 -138 46 -15 -6 -27 -18 -27
-27 0 -27 53 -70 95 -78 40 -8 65 -22 65 -37 0 -4 -25 -15 -55 -24 -62 -17
-98 -59 -93 -105 3 -21 9 -25 41 -28 46 -4 94 23 137 79 29 36 36 39 79 39 53
0 84 -23 96 -71 6 -24 -2 -32 -84 -93 -94 -71 -103 -74 -316 -125 -102 -25
-155 -52 -204 -106 -89 -98 -42 81 73 280 19 33 52 108 73 168 57 162 97 202
240 238 39 10 97 32 129 49 l57 30 21 -37 c25 -43 65 -62 139 -62 32 -1 47 3
47 12 0 25 -59 106 -94 129 -20 13 -36 26 -36 31 0 8 89 67 101 67 4 0 10 -13
14 -30 7 -33 53 -77 91 -86 25 -7 94 3 94 13 0 3 -30 37 -67 76 -36 39 -61 73
-55 75 6 2 42 -11 81 -27 97 -43 119 -41 170 14 22 24 41 51 41 59 0 15 -87
56 -119 56 -11 0 -45 -11 -75 -25 -94 -43 -119 -32 -85 38 l22 45 -21 40 -21
40 35 32 c19 17 34 36 32 42 -2 6 -24 17 -49 23 -24 7 -58 18 -75 25 -41 18
-72 8 -126 -40 -43 -38 -68 -50 -68 -32 1 46 23 189 32 199 8 9 24 12 58 7 41
-5 56 -2 101 22 66 36 89 73 89 142 0 28 -3 52 -7 52 -14 -1 -143 -69 -170
-90 -14 -11 -30 -20 -36 -20 -19 0 1 81 29 117 18 24 28 48 27 69 -1 40 -73
179 -92 179 -8 0 -19 -15 -23 -33 -5 -18 -22 -54 -38 -80 -16 -26 -32 -66 -36
-89 -5 -35 -2 -47 19 -75 35 -45 49 -86 42 -120 -9 -39 -27 -35 -50 10 -38 73
-51 82 -127 82 -56 0 -68 -3 -68 -16 0 -32 44 -76 109 -109 89 -44 104 -68 95
-145 -5 -50 -10 -60 -25 -60 -16 0 -19 8 -19 54 0 80 -39 117 -147 140 -31 7
-31 7 -23 -26 14 -63 38 -104 89 -158 42 -44 51 -59 51 -89 0 -48 -37 -124
-94 -192 -25 -31 -59 -87 -75 -125 -41 -99 -53 -124 -61 -124 -17 0 -33 64
-38 153 -4 88 -3 101 16 126 24 33 52 112 52 147 0 26 -33 98 -49 109 -6 3
-13 -11 -17 -32 -9 -48 -41 -123 -52 -123 -5 0 -22 30 -37 67 -28 65 -28 67
-13 110 30 82 -12 170 -105 218 -31 16 -58 27 -62 24 -5 -6 2 -46 27 -143 5
-21 12 -45 15 -53 10 -26 -68 21 -117 71 -39 41 -49 46 -87 46 -50 0 -192 -65
-176 -81 5 -5 27 -19 49 -30 21 -12 51 -28 66 -35 22 -13 36 -13 95 0 46 9 72
11 81 4 20 -17 14 -27 -23 -42 -41 -17 -75 -68 -75 -113 l0 -32 43 24 c32 18
61 24 126 27 l85 3 23 -34 c24 -35 31 -81 12 -81 -6 0 -31 14 -56 31 -39 27
-51 31 -95 27 -50 -5 -101 -33 -106 -59 -5 -25 87 -51 173 -50 69 1 78 -2 106
-27 30 -26 32 -33 37 -117 11 -181 7 -247 -16 -320 -32 -102 -36 -106 -69 -73
l-27 28 29 30 c25 26 29 38 29 85 -1 36 -8 64 -21 86 l-20 31 -27 -58 c-15
-33 -30 -72 -33 -87 -4 -21 -11 -27 -27 -25 -34 5 -34 66 0 119 35 55 30 116
-12 161 -26 26 -73 58 -88 58 -3 0 -7 -41 -8 -90 l-3 -90 -40 21 c-22 11 -56
36 -75 55 -32 31 -41 34 -90 33 -66 -1 -142 -19 -147 -36 -3 -6 11 -19 29 -29
18 -9 58 -36 90 -59 l56 -42 -39 -35 c-21 -19 -39 -44 -39 -56 0 -18 3 -19 41
-9 29 7 55 7 91 -2 27 -6 67 -11 89 -11 48 0 79 -15 79 -36 0 -13 -7 -15 -32
-10 -18 4 -56 9 -83 12 -50 6 -51 5 -93 -40 -23 -25 -42 -50 -42 -56 0 -17 47
-30 110 -30 45 0 71 7 115 30 71 37 89 37 126 1 48 -48 39 -116 -26 -195 -43
-53 -65 -104 -65 -152 0 -98 -87 -304 -129 -304 -40 0 -56 51 -22 70 29 15 61
73 61 110 0 30 -45 109 -62 110 -4 0 -17 -19 -29 -42 -16 -31 -20 -52 -15 -84
9 -65 -23 -67 -39 -2 -10 38 -47 69 -94 75 -71 10 -76 0 -31 -60 22 -29 54
-63 70 -75 42 -31 37 -42 -17 -41 -67 1 -98 -14 -128 -61 -42 -67 -43 -74 -9
-66 16 4 59 12 96 19 37 7 76 21 88 32 19 17 21 17 40 0 47 -43 32 -81 -75
-183 -45 -44 -76 -84 -97 -128 -17 -35 -35 -67 -40 -70 -5 -3 -26 10 -47 29
-33 30 -49 36 -106 42 -98 11 -131 55 -40 55 32 0 51 7 73 25 31 26 64 84 55
98 -7 12 -132 -2 -164 -19 -14 -7 -40 -29 -57 -48 -28 -32 -34 -35 -57 -26
-15 6 -60 10 -101 10 -41 0 -74 3 -74 8 0 4 30 36 66 71 36 36 84 92 106 125
23 34 52 73 66 88 l24 26 41 -29 c60 -43 109 -41 156 9 20 21 44 52 53 69 l17
30 -67 0 c-37 0 -81 1 -97 3 -17 1 -40 0 -53 -4 -30 -10 -28 6 7 57 16 24 36
59 44 80 18 43 24 44 78 17 69 -36 153 0 185 77 27 63 22 70 -48 65 -35 -2
-80 -13 -102 -23 -21 -11 -41 -18 -43 -15 -3 3 1 35 8 71 10 52 23 79 56 122
28 37 43 65 43 85 0 31 -37 128 -49 128 -13 0 -58 -54 -91 -107 l-31 -52 20
-47 c24 -53 26 -91 9 -129 -18 -40 -38 -31 -38 18 0 78 -53 117 -159 117 -68
0 -79 -14 -38 -47 12 -10 33 -36 46 -58 13 -22 43 -59 67 -81 53 -50 56 -77
17 -155 -35 -68 -63 -78 -63 -21 0 69 -79 152 -160 168 -31 7 -32 6 -24 -17 5
-13 9 -42 9 -64 0 -39 -1 -40 -36 -43 -55 -5 -84 -41 -85 -105 -2 -78 -2 -81
-25 -106 -24 -26 -38 -16 -39 29 -1 54 -58 110 -112 110 -16 0 -28 -2 -28 -5
0 -17 48 -127 71 -164 34 -53 35 -64 9 -106 -15 -25 -22 -58 -27 -132 l-6 -98
-107 -105 c-87 -85 -114 -119 -144 -180 -20 -41 -50 -92 -66 -112 -28 -35
-129 -94 -149 -86 -5 1 -1 28 9 61 10 31 23 112 30 180 6 67 17 157 25 200 13
74 17 82 68 136 65 68 86 106 94 170 5 46 8 49 43 60 56 17 73 41 73 106 0 31
-3 58 -6 62 -6 5 -32 -10 -105 -63 -29 -21 -34 -15 -39 43 -4 46 -3 49 29 63
49 22 63 60 50 133 -6 33 -13 62 -16 64 -12 12 -82 -81 -105 -141 -12 -29 -12
-29 -31 -10 -11 11 -24 41 -29 68 -5 29 -18 57 -32 70 -24 23 -136 62 -146 52
-3 -3 6 -19 21 -36 14 -17 26 -38 26 -45 0 -30 24 -64 52 -76 36 -15 58 -36
58 -54 0 -11 -6 -12 -26 -5 -37 14 -106 12 -128 -5 -19 -14 -19 -15 -1 -35 23
-25 75 -40 141 -40 40 0 55 -5 72 -23 12 -13 22 -33 22 -45 0 -21 -1 -21 -34
-6 -23 11 -45 14 -69 10 -66 -12 -62 -27 25 -85 44 -29 82 -60 85 -68 10 -26
-11 -66 -46 -90 -43 -29 -51 -29 -51 0 0 13 -7 47 -16 77 -13 43 -31 69 -93
134 -89 93 -110 127 -118 195 -6 56 13 183 34 226 21 40 85 125 95 125 5 0 17
-20 28 -44 20 -49 43 -67 107 -90 37 -13 42 -13 47 1 10 26 -22 107 -61 152
-19 23 -34 43 -32 45 2 2 14 9 27 15 29 16 41 2 72 -81 23 -63 51 -89 115
-107 22 -6 43 -11 48 -11 16 0 5 51 -23 104 -17 31 -27 56 -24 56 4 0 29 -13
56 -30 70 -43 137 -36 196 20 28 26 21 38 -47 78 -38 22 -55 26 -110 24 -77
-2 -171 15 -171 31 0 6 20 30 45 53 28 25 45 49 45 64 0 23 -39 100 -50 100
-4 0 -28 -22 -54 -49 -30 -33 -50 -66 -58 -96 -8 -31 -24 -57 -46 -76 -37 -33
-79 -40 -67 -11 28 69 28 69 -10 132 -20 34 -42 59 -47 58 -6 -2 -19 -26 -30
-53 -21 -55 -20 -110 2 -186 l13 -46 -43 -52 c-49 -58 -75 -67 -66 -23 3 15
13 76 21 136 20 141 32 189 66 257 63 127 202 273 339 356 48 29 173 61 274
69 77 6 88 4 141 -20 l58 -26 -47 -50 c-46 -49 -47 -50 -40 -102 4 -29 10 -57
14 -61 10 -11 77 69 92 110 14 37 41 44 58 14 18 -34 11 -58 -22 -85 -18 -15
-39 -31 -45 -37 -18 -14 -16 -75 3 -140 21 -70 22 -71 45 -58 34 18 60 70 54
107 -7 40 10 68 31 51 7 -6 18 -35 25 -65 12 -51 16 -58 76 -99 35 -25 70 -45
77 -45 17 0 26 22 26 65 0 54 -18 81 -72 106 -55 26 -81 56 -76 89 3 20 4 20
40 -5 27 -18 50 -25 85 -25 79 0 83 11 25 68 -45 44 -57 50 -103 54 -45 5 -58
11 -86 42 -33 35 -45 72 -20 64 123 -44 111 -43 152 -18 38 23 75 58 75 71 0
4 -18 14 -40 23 -50 20 -131 20 -185 1 -56 -21 -86 -19 -136 9 -24 13 -62 27
-84 30 -65 11 -75 16 -75 37 0 18 5 19 79 13 76 -6 80 -6 124 24 24 17 57 46
72 64 24 29 26 33 11 36 -10 2 -50 -4 -89 -13 -111 -25 -107 -25 -107 -5 0 19
71 89 93 91 6 1 42 0 78 -1 51 -1 76 3 108 20 52 26 60 45 32 73 -17 18 -31
21 -86 19 -35 -1 -67 3 -70 9 -6 9 22 40 113 121 51 46 67 96 47 143 -39 95
-140 11 -160 -132 -5 -38 -16 -62 -42 -92 -19 -23 -38 -41 -43 -41 -4 0 -13
28 -19 61 -6 34 -18 73 -27 87 l-17 26 -22 -28 c-39 -48 -45 -87 -24 -148 10
-29 18 -66 19 -81 0 -36 -26 -87 -45 -87 -18 0 -18 4 -6 48 13 44 -1 74 -50
108 -44 30 -53 27 -69 -22 -13 -39 -9 -64 22 -140 36 -88 0 -147 -112 -188
-156 -56 -217 -92 -313 -183 -83 -79 -92 -86 -95 -64 -7 45 8 71 59 102 61 38
79 71 86 160 7 82 -2 87 -49 28 -66 -82 -86 -104 -92 -98 -10 10 -26 108 -20
124 4 8 14 15 24 15 31 0 80 49 79 78 -1 40 -24 97 -39 97 -7 0 -24 -22 -38
-48 -35 -63 -57 -60 -57 8 0 45 3 51 30 64 64 29 105 92 105 158 0 53 -9 61
-47 51 -29 -8 -51 -29 -112 -108 l-19 -25 -17 40 c-15 36 -19 75 -15 143 1 13
-11 40 -28 60 -23 29 -43 41 -95 56 -37 11 -69 17 -71 15 -8 -8 20 -104 43
-153 13 -25 39 -56 61 -71 24 -16 40 -36 40 -47 0 -19 0 -19 -32 0 -38 23
-104 45 -118 40 -12 -4 23 -72 54 -107 11 -13 45 -39 74 -58 50 -32 92 -83 92
-110 0 -22 -20 -14 -54 22 -30 31 -39 35 -85 35 -39 0 -51 -4 -51 -15 0 -27
64 -86 130 -118 61 -30 92 -59 78 -72 -3 -4 -20 1 -36 9 -32 17 -142 34 -142
22 0 -23 46 -90 81 -118 103 -83 94 -70 93 -145 -1 -78 -21 -146 -76 -255 -27
-56 -41 -100 -49 -155 -5 -43 -13 -87 -16 -97 -5 -18 -7 -18 -25 5 -38 47 -65
95 -78 134 -7 22 -28 69 -46 104 -19 35 -34 69 -34 75 0 6 16 31 35 55 19 24
35 55 35 69 0 14 -16 54 -36 90 l-37 66 -18 -23 c-12 -14 -19 -39 -19 -65 0
-64 -15 -77 -35 -30 -28 65 -29 97 -6 142 26 51 29 146 5 180 -8 12 -20 19
-26 16 -23 -14 -48 -91 -48 -147 l0 -59 -32 19 c-31 18 -70 68 -110 142 -14
26 -23 31 -53 31 -44 0 -142 -27 -151 -41 -15 -24 50 -70 136 -95 87 -27 150
-64 150 -90 0 -19 -17 -18 -48 4 -15 11 -38 22 -52 25 -26 7 -107 -10 -115
-23 -10 -16 105 -77 168 -90 34 -6 74 -18 89 -26 31 -16 78 -80 78 -106 0 -15
-6 -14 -54 8 -50 23 -58 24 -101 13 -42 -11 -49 -10 -57 5 -5 9 -40 32 -78 51
-38 19 -71 39 -75 45 -12 19 -35 11 -35 -12 0 -59 21 -99 65 -126 25 -15 45
-32 45 -38 0 -7 -37 -14 -97 -18 l-96 -7 -47 51 c-31 34 -54 50 -71 50 -25 0
-110 -37 -143 -62 -17 -13 -14 -16 42 -41 33 -15 71 -27 85 -27 20 0 24 -4 20
-20 -4 -13 -17 -21 -42 -25 -117 -18 -151 -47 -151 -126 0 -27 4 -49 8 -49 32
0 105 36 123 61 11 16 30 34 41 40 23 12 23 7 2 -88 -6 -29 -4 -33 14 -33 29
0 83 58 122 131 36 68 69 89 140 89 52 0 52 -20 1 -41 -28 -12 -46 -29 -60
-58 -23 -43 -27 -71 -11 -71 22 0 119 49 151 77 100 88 167 71 341 -88 84 -76
117 -123 148 -214 20 -57 27 -155 12 -155 -4 0 -31 18 -61 40 -29 22 -57 40
-62 40 -6 0 -9 34 -7 79 3 72 1 82 -21 105 -24 26 -76 46 -117 46 -19 0 -20
-5 -16 -62 4 -46 11 -71 28 -94 24 -31 31 -54 17 -54 -10 0 -114 43 -130 53
-7 5 -13 25 -13 46 0 45 -31 96 -79 128 -27 18 -48 23 -102 23 -38 0 -69 -3
-69 -7 0 -20 86 -115 122 -135 24 -13 43 -30 43 -38 0 -13 -17 -14 -105 -12
-97 3 -108 2 -140 -20 -48 -32 -70 -80 -70 -150 0 -55 1 -58 24 -58 18 0 45
23 101 84 80 88 101 104 119 86 6 -6 3 -17 -12 -33 -21 -22 -52 -86 -52 -107
0 -31 102 7 203 76 53 37 63 39 101 24 35 -13 33 -30 -3 -30 -57 0 -101 -62
-101 -142 0 -24 4 -28 28 -28 64 0 101 20 142 75 54 74 93 82 148 31 35 -31
49 -63 60 -137 14 -92 42 -141 132 -230 91 -91 119 -145 129 -247 7 -74 6 -79
-42 -236 -16 -54 -37 -59 -37 -9 0 64 -35 110 -124 164 -44 26 -83 46 -87 44
-17 -11 34 -186 61 -210 23 -20 27 -55 7 -55 -18 0 -109 -28 -126 -39 -11 -7
-10 -13 4 -35 32 -48 71 -63 184 -69 57 -4 106 -9 110 -12 18 -19 2 -89 -41
-176 -56 -111 -82 -236 -71 -339 6 -60 5 -62 -14 -52 -11 6 -25 18 -32 26 -24
29 -139 86 -203 101 -101 23 -200 63 -228 91 l-25 25 24 17 c13 9 41 33 63 53
38 36 38 38 38 112 0 51 -4 76 -13 80 -18 7 -105 -76 -122 -117 -15 -34 -28
-45 -38 -28 -3 4 6 50 20 102 35 138 18 191 -75 231 -65 28 -72 22 -72 -60 0
-65 2 -72 40 -122 35 -47 40 -60 40 -106 0 -29 -2 -53 -4 -53 -2 0 -18 14 -36
30 -27 25 -40 30 -82 30 -27 0 -58 -5 -69 -10 -19 -11 -19 -12 -2 -41 32 -54
97 -106 141 -114 32 -5 46 -14 61 -39 11 -18 29 -41 41 -51 31 -28 24 -35 -36
-35 -51 0 -63 5 -138 54 -86 57 -95 69 -116 156 -6 25 -14 54 -17 66 -3 16 5
29 36 54 59 46 74 80 69 154 -4 67 -37 130 -66 124 -8 -2 -29 -25 -46 -53 -28
-45 -31 -57 -28 -117 1 -38 -2 -68 -7 -68 -11 0 -91 110 -91 126 0 6 20 29 45
52 36 33 45 47 45 75 0 41 -24 114 -48 145 l-18 23 -47 -78 c-38 -64 -47 -87
-47 -126 0 -29 -4 -47 -11 -47 -24 0 -157 70 -163 86 -9 25 3 40 156 189 l143
140 3 -38 c2 -26 13 -47 36 -70 31 -31 99 -61 110 -49 3 3 6 31 6 63 0 56 -1
59 -45 95 -25 20 -45 40 -45 45 0 13 37 20 75 13 l35 -6 0 -63 c0 -61 1 -63
44 -103 42 -39 104 -77 112 -70 6 7 -34 125 -55 159 -25 41 -26 49 -5 49 30 0
75 -42 111 -106 33 -56 43 -66 78 -75 40 -11 139 -8 152 4 11 11 -18 57 -72
113 -42 44 -58 54 -96 59 -94 14 -174 85 -95 85 46 0 85 34 96 83 8 38 7 39
-27 54 -65 27 -114 5 -158 -73 -14 -25 -26 -33 -59 -37 -23 -3 -60 -9 -83 -13
-52 -8 -53 0 -13 51 34 42 37 75 16 145 -16 55 -36 61 -76 22 -37 -38 -46 -75
-31 -130 10 -40 9 -49 -15 -103 -26 -58 -81 -119 -108 -119 -9 0 -15 27 -19
98 -6 84 -13 125 -43 229 -5 18 3 28 44 58 52 37 72 73 72 129 -1 34 -11 51
-54 84 -47 36 -56 30 -56 -37 0 -107 -25 -121 -65 -38 l-26 52 51 53 c56 59
62 84 34 165 -18 52 -31 57 -89 33 -41 -18 -52 -50 -38 -112 12 -50 6 -58 -30
-45 -22 9 -47 35 -119 124 -20 24 -33 29 -83 34 -59 5 -145 -10 -145 -26 0
-12 111 -106 148 -125 l33 -17 -48 -32 c-26 -18 -48 -38 -48 -46 0 -24 102
-53 171 -48 78 6 115 -10 138 -58 10 -20 16 -38 14 -41 -3 -2 -20 7 -38 21
-62 46 -145 30 -222 -42 -23 -22 -32 -25 -72 -19 -35 6 -50 14 -72 43 l-27 35
-24 -76 c-14 -43 -29 -76 -37 -76 -7 0 -18 23 -26 55 l-13 54 36 41 c34 36 37
45 37 99 0 93 -8 121 -37 121 -13 0 -37 -7 -52 -14 -26 -14 -29 -21 -35 -87
-3 -40 -9 -75 -12 -78 -3 -3 -14 5 -25 18 -14 17 -19 39 -19 83 0 33 -4 67 -9
77 -9 17 -152 121 -166 121 -11 0 7 -174 21 -201 7 -15 34 -39 59 -53 30 -18
45 -34 45 -47 0 -16 -4 -19 -17 -14 -43 17 -70 22 -101 17 -46 -6 -42 -34 12
-72 34 -23 56 -30 91 -30 31 0 57 -7 75 -20 33 -23 64 -85 55 -108 -5 -14 -10
-11 -31 16 -29 37 -72 43 -120 17 -28 -15 -30 -15 -60 20 -45 51 -131 228
-150 310 -27 111 -33 122 -107 195 -68 65 -70 70 -75 123 -9 115 49 216 182
316 50 37 105 75 122 84 46 24 107 31 134 17 22 -12 22 -12 -24 -53 -48 -43
-52 -55 -48 -140 l2 -39 53 38 c28 20 63 48 75 62 19 20 26 23 33 11 20 -32 8
-48 -55 -70 -57 -20 -86 -69 -86 -141 0 -33 4 -58 10 -58 6 0 30 18 54 40 66
61 86 48 46 -30 -11 -22 -20 -49 -20 -61 0 -29 35 -101 59 -123 17 -16 20 -13
60 45 46 70 50 93 21 149 -21 41 -26 80 -11 80 5 0 25 -16 44 -35 30 -30 42
-35 80 -35 28 0 52 6 61 16 15 14 14 19 -14 54 -44 55 -88 90 -114 90 -12 0
-30 6 -39 13 -18 13 -45 102 -34 113 3 4 23 -6 43 -21 28 -21 46 -27 81 -27
52 1 153 44 153 66 0 8 -29 30 -65 50 -75 41 -143 48 -198 20 -31 -17 -31 -17
-62 19 -33 40 -69 57 -118 57 l-31 0 20 21 c12 11 61 34 110 50 111 38 175 81
265 181 l71 78 65 0 c79 0 119 17 176 77 63 66 64 71 21 89 -48 20 -85 13
-135 -27 -35 -27 -39 -29 -39 -11 0 21 49 87 80 109 11 8 40 20 66 28 26 7 57
24 70 36 26 25 58 101 69 167 l7 42 -37 0 c-49 0 -91 -24 -111 -63 -19 -37
-44 -67 -56 -67 -13 0 -10 28 7 61 25 47 35 122 24 165 -11 41 -116 154 -142
154 -10 0 -16 -22 -20 -86z m-3126 -366 c39 -29 41 -33 22 -36 -12 -2 -37 5
-55 15 -18 10 -51 20 -72 23 -63 8 -58 30 7 30 45 0 61 -5 98 -32z m2854 -78
c14 -5 24 -20 28 -39 5 -22 20 -39 61 -65 80 -51 81 -72 8 -172 -35 -48 -141
-107 -278 -155 -104 -36 -162 -71 -224 -133 -24 -26 -48 -46 -52 -46 -12 0
-10 138 3 226 9 59 19 85 43 117 48 62 60 66 94 34 23 -22 37 -27 78 -27 50 1
155 36 161 55 5 15 -119 75 -156 75 -34 0 -39 14 -14 42 22 25 29 23 64 -17
28 -32 36 -35 84 -35 64 0 105 14 105 35 0 9 -22 38 -50 66 -27 27 -50 52 -50
56 0 6 62 -5 95 -17z m-2378 -512 c12 -13 32 -46 47 -75 l26 -51 -43 -25 c-23
-14 -51 -34 -61 -46 -11 -12 -22 -21 -25 -21 -4 0 -20 24 -36 53 l-28 54 26
35 c15 19 27 46 27 60 0 45 33 52 67 16z m-283 -51 c62 -35 57 -47 -14 -30
-54 12 -64 12 -96 -3 -19 -9 -43 -27 -54 -41 -21 -28 -55 -111 -48 -118 3 -3
25 4 49 15 28 12 66 20 104 20 41 0 72 6 98 20 20 11 46 20 56 20 29 0 51 -38
51 -87 0 -51 -10 -54 -78 -18 -41 21 -52 23 -91 14 -77 -17 -155 -88 -121
-109 13 -8 121 -23 160 -22 14 0 48 4 76 7 l51 7 27 -56 c16 -33 46 -72 72
-93 42 -36 57 -63 33 -63 -34 0 -141 49 -190 86 -51 39 -142 75 -156 61 -3 -3
5 -22 17 -41 29 -48 40 -48 -255 10 l-120 23 -43 48 c-65 72 -68 81 -35 93 81
28 116 75 129 168 5 43 4 52 -9 52 -35 0 -105 -40 -134 -76 -17 -22 -34 -36
-38 -33 -3 4 -1 27 5 52 11 43 15 46 76 72 54 23 73 26 119 21 30 -3 79 -9
108 -12 43 -5 61 -2 93 14 51 28 109 27 158 -1z m6986 -17 c34 0 36 -3 60 -61
22 -56 23 -64 9 -87 -21 -38 -96 -89 -110 -75 -8 8 -4 16 16 29 24 16 27 22
22 62 -5 42 -31 92 -53 99 -5 2 -26 -31 -47 -72 -28 -57 -37 -88 -37 -127 0
-47 -3 -54 -40 -89 -39 -37 -116 -69 -167 -69 -29 0 -29 3 2 85 37 97 52 123
105 179 26 28 55 67 65 86 24 48 32 52 90 46 28 -3 66 -6 85 -6z m-6373 -187
c53 -36 86 -66 90 -80 13 -56 -26 -38 -121 52 -59 56 -79 85 -60 85 4 0 45
-26 91 -57z m-106 -91 c111 -115 149 -174 173 -266 18 -67 33 -236 21 -236
-17 0 -200 148 -241 195 -252 289 -247 278 -164 320 35 18 56 36 67 60 9 19
22 35 29 35 6 0 58 -48 115 -108z m3509 26 c33 -10 51 -23 72 -53 50 -72 31
-86 -38 -29 -24 19 -82 53 -129 75 -89 42 -100 51 -91 75 5 12 18 8 73 -20 38
-19 88 -40 113 -48z m-2485 -163 c145 -38 316 -153 446 -299 71 -80 80 -95
124 -214 63 -168 82 -203 155 -292 69 -85 98 -135 141 -252 36 -99 55 -251 42
-353 -8 -67 -9 -70 -35 -73 -33 -4 -36 8 -8 33 26 24 26 73 -2 130 -22 45 -32
53 -43 35 -12 -19 -25 -10 -25 18 0 44 -20 102 -35 102 -8 0 -31 -20 -52 -45
-55 -66 -67 -61 -59 24 8 79 -1 107 -56 160 -22 22 -40 31 -58 29 -23 -3 -26
-8 -33 -77 -10 -94 -6 -112 44 -166 28 -31 42 -56 46 -82 4 -37 3 -39 -40 -61
-68 -36 -84 -58 -91 -130 l-7 -64 40 7 c43 7 47 4 31 -24 -9 -17 -2 -19 78
-25 66 -5 99 -3 137 9 66 20 175 11 205 -17 11 -11 38 -56 59 -101 21 -45 64
-113 95 -152 31 -38 56 -75 56 -81 0 -20 -169 -5 -206 17 -17 11 -48 19 -68
19 -30 0 -45 -8 -81 -45 -38 -38 -45 -50 -45 -85 0 -22 2 -40 5 -40 3 0 24 9
47 21 29 15 47 18 60 12 18 -8 11 -16 -56 -72 -81 -68 -103 -107 -92 -165 10
-52 103 -133 126 -110 6 6 13 58 17 117 6 103 7 109 35 132 39 33 52 23 26
-20 -26 -45 -18 -78 30 -127 51 -54 76 -51 92 10 9 37 9 64 -1 125 -16 97 -9
111 52 115 42 3 47 0 78 -38 17 -22 39 -57 48 -77 21 -52 27 -173 13 -263 -6
-41 -14 -100 -17 -130 l-5 -55 -92 3 c-50 1 -108 8 -129 14 -28 9 -40 9 -49 0
-17 -17 -138 -15 -189 4 -26 9 -57 13 -76 9 -22 -4 -45 0 -70 13 -21 11 -72
29 -113 42 -161 48 -203 90 -282 282 -18 45 -22 82 -28 233 -8 207 -22 257
-102 380 -51 78 -100 172 -116 225 -17 53 -33 178 -26 206 6 25 24 34 24 11 0
-18 47 -85 68 -96 14 -7 25 -4 46 13 l28 22 -37 87 c-31 71 -35 90 -25 102 7
8 21 15 31 15 15 0 19 -7 19 -32 1 -42 19 -74 56 -99 47 -31 64 -26 64 21 0
45 8 49 35 20 35 -38 165 -52 165 -17 0 21 -59 115 -82 131 -12 9 -43 16 -68
16 -84 0 -92 31 -19 71 24 13 50 36 58 50 13 24 13 29 -9 59 -20 28 -27 31
-58 27 -53 -9 -80 -32 -99 -86 -15 -43 -22 -50 -49 -56 -18 -3 -48 -17 -68
-30 -20 -14 -41 -25 -46 -25 -5 0 -6 22 -3 49 7 61 -14 99 -78 142 l-44 29 -6
-28 c-12 -53 -2 -196 16 -231 11 -23 15 -44 10 -65 -10 -45 -10 -96 -1 -140 8
-36 8 -38 -12 -27 -11 6 -46 49 -76 96 -31 47 -74 104 -96 128 -47 52 -66 100
-104 269 -9 38 16 60 58 52 39 -7 199 51 193 69 -1 7 -20 20 -40 31 -34 16
-44 17 -102 5 -36 -7 -68 -10 -71 -6 -4 4 -2 18 4 32 10 22 15 24 60 18 44 -5
55 -2 121 38 l71 42 -26 28 c-43 45 -79 55 -121 35 -19 -9 -38 -15 -41 -12 -2
3 17 29 43 58 l47 53 -5 63 c-3 35 -7 66 -11 69 -3 3 -20 0 -37 -7 -30 -13
-33 -12 -53 16 -11 16 -33 40 -48 53 -33 30 -24 55 27 77 48 20 53 18 60 -20
8 -38 96 -133 114 -122 6 4 15 25 21 48 11 39 10 43 -24 93 -20 28 -36 54 -36
58 0 11 62 25 110 26 25 1 72 -6 105 -14z m4606 -42 l24 -27 -24 15 c-14 9
-27 21 -29 27 -6 19 3 14 29 -15z m-4995 -278 c2 -11 5 -49 7 -85 2 -54 -1
-65 -16 -68 -18 -4 -22 3 -32 60 -5 31 -12 40 -45 54 -39 18 -40 19 -40 70 0
87 5 90 66 37 30 -26 57 -57 60 -68z m-200 -97 c9 -18 40 -56 70 -84 35 -32
56 -62 60 -82 9 -46 -17 -52 -60 -14 -43 37 -85 47 -132 32 -47 -16 -54 -6
-54 76 0 64 13 87 55 97 39 9 45 7 61 -25z m4431 -261 c42 -62 51 -109 30
-153 l-16 -33 -41 14 c-26 9 -57 12 -86 8 -36 -5 -44 -3 -44 10 0 8 15 25 34
36 40 25 45 35 53 113 7 73 24 74 70 5z m-2363 14 c17 -10 54 -26 81 -36 28
-10 57 -25 67 -32 9 -8 26 -51 38 -96 18 -66 21 -98 17 -167 -3 -47 -11 -98
-17 -115 -6 -16 -44 -64 -83 -105 -40 -42 -84 -92 -99 -111 -21 -29 -35 -37
-72 -42 -25 -4 -64 -16 -87 -27 -53 -27 -50 -52 9 -62 77 -13 77 -17 23 -151
-22 -53 -47 -121 -55 -152 -9 -30 -20 -55 -24 -54 -16 1 -133 191 -152 248
-28 83 -26 134 9 207 23 48 39 67 81 94 52 33 53 34 82 17 19 -11 52 -17 89
-17 59 0 61 1 110 51 27 28 49 54 49 59 0 15 -67 23 -131 16 -67 -8 -69 -5
-39 54 11 22 20 49 20 60 0 29 21 34 65 16 56 -24 71 -20 126 31 l50 46 -53
29 c-29 16 -57 33 -62 38 -6 6 -22 2 -43 -11 -46 -29 -57 -21 -33 23 11 21 20
49 20 63 0 38 -35 99 -64 113 -14 6 -26 16 -26 22 0 17 71 11 104 -9z m-2083
-36 c24 -14 56 -25 71 -25 18 0 33 -8 42 -22 14 -23 33 -178 22 -178 -10 0
-120 62 -140 79 -10 9 -24 27 -31 41 -15 31 -27 130 -16 130 5 0 29 -11 52
-25z m1902 -17 c8 -24 26 -61 41 -82 14 -21 26 -51 25 -65 0 -24 -1 -25 -12
-7 -19 31 -46 56 -60 56 -7 0 -32 -12 -55 -27 -44 -29 -57 -63 -23 -63 30 0
121 -88 121 -116 0 -28 -26 -84 -39 -84 -5 0 -11 19 -14 42 -8 60 -35 90 -98
108 -54 16 -54 16 -57 58 -3 42 -2 43 42 63 63 27 83 52 91 110 4 27 11 49 15
49 4 0 15 -19 23 -42z m-307 -129 c19 -11 39 -29 44 -39 15 -28 13 -110 -2
-110 -11 0 -98 146 -98 164 0 12 23 6 56 -15z m2840 -67 c-4 -11 -33 -45 -66
-76 -63 -61 -74 -63 -128 -30 -19 12 -21 18 -11 35 9 17 17 20 45 15 37 -8 68
6 124 53 38 32 45 33 36 3z m-2652 -183 c25 -28 46 -59 46 -70 0 -12 -20 -27
-64 -48 -35 -17 -67 -31 -70 -31 -9 0 -7 50 3 90 5 19 12 52 16 73 3 20 10 37
15 37 4 0 29 -23 54 -51z m2634 -115 c21 -6 22 -12 22 -95 0 -64 6 -103 20
-142 34 -91 38 -93 88 -36 53 60 65 111 36 164 -10 19 -15 37 -12 40 14 15 98
-47 98 -72 0 -8 23 -38 51 -68 l51 -54 -21 -138 c-32 -216 -41 -330 -41 -540
0 -203 -9 -270 -41 -299 -16 -15 -23 -15 -43 -5 -40 22 -52 55 -38 107 17 63
15 98 -9 155 -23 53 -30 57 -49 34 -24 -28 -28 -15 -23 68 l5 82 52 46 51 47
4 87 c4 116 -5 124 -69 57 -27 -28 -52 -64 -56 -79 -15 -70 -25 -70 -60 -1
-14 28 -42 76 -62 105 l-35 54 33 34 c32 33 33 35 27 102 -5 71 -43 177 -59
167 -5 -4 -18 -26 -29 -51 -11 -25 -28 -58 -39 -73 -14 -20 -20 -44 -20 -84 0
-31 -3 -56 -7 -56 -13 0 -89 64 -118 98 -36 43 -91 57 -156 41 -27 -7 -51 -10
-55 -7 -18 19 69 119 188 215 97 79 230 120 316 97z m-3148 -264 c10 -18 8
-20 -20 -20 -32 0 -38 8 -18 28 17 17 26 15 38 -8z m1003 3 c17 -10 3 -24 -62
-58 -129 -68 -130 -97 -5 -103 l76 -4 50 53 50 54 34 -39 c19 -22 34 -43 34
-47 0 -4 -24 -21 -54 -38 -75 -42 -126 -117 -126 -184 0 -18 5 -19 52 -13 76
10 114 30 144 75 15 23 28 41 29 41 2 0 16 -33 31 -72 32 -88 40 -97 126 -154
37 -25 68 -48 68 -51 0 -16 -83 -113 -97 -113 -8 0 -31 14 -51 31 -31 27 -41
31 -79 26 -58 -6 -193 -88 -193 -117 0 -21 63 -42 109 -36 144 18 151 18 151
7 0 -7 -10 -22 -23 -34 -13 -12 -43 -48 -66 -79 -24 -32 -45 -58 -47 -58 -1 0
-24 18 -49 40 -25 22 -53 40 -61 40 -43 0 -184 -105 -184 -136 0 -20 45 -29
143 -28 69 1 87 -1 87 -13 0 -26 -45 -59 -118 -87 -78 -30 -96 -49 -107 -108
-4 -20 -13 -45 -20 -55 -13 -17 -15 -16 -43 11 -50 47 -66 127 -52 261 25 243
25 254 -6 356 -26 83 -29 109 -29 224 0 123 2 134 33 210 62 153 84 189 122
202 31 11 111 8 133 -4z m1687 -148 c70 -62 82 -67 149 -59 57 6 96 -4 113
-30 15 -22 7 -26 -50 -20 -69 8 -102 -8 -122 -57 -17 -39 -6 -49 61 -56 44 -4
66 0 117 21 55 23 66 25 89 14 26 -13 89 -115 78 -126 -3 -3 -32 7 -64 23 -61
29 -88 29 -126 1 -27 -20 -14 -40 55 -88 38 -27 64 -38 89 -38 20 0 47 -7 60
-16 21 -15 22 -22 20 -113 -2 -53 1 -111 5 -128 12 -46 -9 -43 -68 8 -42 38
-46 44 -46 88 0 39 -5 52 -27 73 -44 41 -95 68 -131 68 -28 0 -32 -3 -28 -22
3 -13 8 -40 11 -60 5 -30 15 -44 50 -68 25 -17 45 -34 45 -37 0 -3 -23 -3 -51
0 -33 4 -61 15 -80 32 -24 19 -42 25 -79 25 -44 0 -51 -3 -78 -37 -33 -42 -66
-103 -59 -109 2 -2 18 1 36 7 20 7 61 9 104 6 55 -5 76 -3 91 8 25 19 77 19
102 0 18 -13 17 -14 -19 -15 -53 0 -72 -13 -91 -60 -32 -80 -16 -105 41 -65
21 14 43 25 48 25 6 0 24 14 40 30 24 25 36 30 77 30 36 0 53 -5 71 -22 l22
-23 -87 -3 -88 -3 -41 -70 c-23 -38 -39 -72 -37 -75 3 -2 34 -7 70 -11 74 -6
105 6 177 68 55 49 83 50 111 4 12 -19 45 -48 74 -65 82 -47 90 -85 45 -219
-11 -30 -19 -80 -19 -112 0 -103 -45 -283 -79 -313 -16 -15 -19 -15 -33 1 -32
37 -48 83 -48 140 -1 78 -14 130 -41 159 -25 27 -86 47 -126 42 l-26 -3 27
-32 c14 -17 33 -51 41 -75 9 -23 23 -57 32 -75 20 -39 15 -47 -26 -38 -21 4
-41 22 -66 56 -34 47 -37 49 -85 49 -34 0 -67 -9 -105 -27 -86 -42 -80 -51 87
-122 l37 -16 -31 -48 c-31 -48 -31 -48 -52 -29 -68 62 -97 57 -195 -33 -55
-50 -89 -75 -105 -75 -37 0 -41 17 -13 53 46 61 59 96 52 140 -8 49 -35 99
-50 94 -5 -2 -27 -32 -47 -68 -35 -60 -37 -66 -27 -106 15 -57 6 -88 -30 -103
-16 -6 -44 -23 -62 -36 -18 -13 -35 -21 -39 -19 -4 2 -10 35 -14 72 -4 37 -9
82 -12 100 -6 29 -3 33 22 38 58 13 64 17 64 35 0 10 -18 31 -40 47 -39 28
-40 29 -40 94 0 87 22 120 115 170 39 21 82 52 96 68 40 48 59 41 59 -20 0
-44 4 -55 30 -79 33 -30 93 -55 109 -45 6 3 -1 38 -19 88 -16 45 -27 83 -25
86 13 12 39 -16 62 -65 23 -51 31 -59 87 -84 98 -46 101 -45 100 21 -1 34 -8
65 -19 82 -22 34 -75 67 -108 67 -25 0 -87 43 -87 60 0 5 16 14 35 20 48 16
65 44 65 107 0 61 -8 65 -77 33 -27 -12 -55 -37 -78 -68 -37 -52 -51 -62 -90
-62 -26 0 -35 17 -35 64 0 43 -28 77 -80 101 -37 17 -42 17 -57 2 -15 -14 -14
-20 12 -69 15 -29 42 -69 61 -88 19 -20 34 -40 34 -46 0 -15 -61 -68 -93 -82
-57 -25 -65 -19 -60 48 3 34 -2 107 -11 163 -8 56 -18 131 -22 167 -3 36 -13
92 -22 125 -10 40 -16 103 -16 190 0 192 17 220 194 328 50 30 86 61 107 91
18 25 37 46 42 46 6 0 33 -20 61 -45z m-802 -454 c102 -51 172 -108 228 -184
66 -90 80 -123 94 -212 12 -76 7 -386 -7 -421 -3 -7 -27 -29 -54 -49 -40 -29
-49 -40 -49 -66 0 -58 -13 -69 -86 -69 -63 0 -65 1 -59 23 4 12 16 36 26 53
11 17 19 40 19 51 0 20 -36 58 -82 87 l-27 18 -13 -44 c-7 -24 -13 -78 -13
-120 l0 -77 -72 -66 c-61 -55 -93 -77 -93 -61 0 2 17 39 37 82 36 77 37 82 36
190 l-1 111 56 17 c67 21 105 47 143 99 44 61 41 67 -46 67 -68 0 -77 -2 -108
-30 -56 -49 -64 -41 -51 54 l7 46 56 1 c90 2 102 8 149 84 23 38 42 75 42 82
0 21 -57 15 -110 -12 -57 -29 -60 -30 -60 -11 0 8 15 24 34 35 19 12 37 28 40
37 10 27 7 80 -11 159 -21 97 -35 98 -99 3 -49 -73 -49 -73 -47 -148 3 -93 -9
-117 -38 -78 -23 31 -79 68 -103 68 -37 0 -8 -127 41 -175 27 -26 35 -43 40
-83 6 -58 -2 -102 -20 -102 -6 1 -25 19 -40 42 -27 38 -31 40 -66 35 -46 -6
-121 -53 -121 -76 0 -24 57 -59 120 -73 104 -23 133 -62 132 -179 0 -59 -6
-82 -31 -133 -17 -33 -40 -72 -51 -85 -20 -23 -21 -23 -34 -6 -7 10 -22 34
-32 53 -18 34 -18 35 5 74 43 75 27 132 -51 189 -37 26 -43 28 -51 13 -9 -16
-4 -105 9 -151 11 -39 -23 -27 -36 12 -15 45 -35 55 -113 55 -71 0 -127 -15
-127 -35 0 -19 85 -94 114 -100 87 -18 84 -12 28 -50 -60 -41 -68 -51 -52 -70
18 -22 89 -19 125 5 40 27 78 25 112 -4 25 -21 28 -31 27 -78 -1 -30 -8 -67
-17 -84 -22 -41 -103 -118 -116 -110 -19 12 -87 118 -162 252 -84 151 -114
190 -232 303 -49 47 -95 97 -103 113 -14 27 -14 29 11 38 14 5 37 13 49 16 18
4 36 31 75 110 70 140 77 143 135 51 64 -103 75 -117 90 -117 16 0 36 92 36
165 0 56 -19 84 -73 104 l-28 11 26 49 c15 26 43 65 63 86 l37 38 6 -34 c15
-95 109 -219 109 -145 0 13 9 53 20 88 28 89 26 118 -10 150 -38 34 -38 54 3
91 26 25 50 35 117 48 47 9 115 17 153 18 60 1 76 -4 145 -38z m-4430 -168
c19 -37 35 -121 28 -149 l-8 -29 -18 35 c-10 20 -37 46 -61 61 -55 32 -57 57
-9 81 44 22 57 22 68 1z m209 -59 c58 -61 61 -69 37 -102 -21 -30 -44 -28 -44
3 0 40 -25 89 -54 108 -14 10 -26 24 -26 32 0 30 36 13 87 -41z m-353 -94 c44
-61 46 -80 9 -81 -16 0 -38 -2 -51 -3 -13 -2 -25 1 -29 7 -7 12 17 127 27 127
5 0 24 -23 44 -50z m1943 -269 c98 -16 214 -33 258 -39 44 -6 108 -22 142 -36
35 -15 73 -26 85 -26 30 0 52 -15 44 -29 -4 -6 -43 -39 -86 -74 -44 -35 -94
-82 -112 -105 -18 -22 -37 -41 -42 -41 -4 -1 -21 10 -37 24 -42 35 -91 41
-158 20 -61 -19 -121 -72 -139 -122 l-10 -30 115 -1 c65 -1 123 3 135 9 11 6
26 8 33 5 12 -4 12 -11 0 -47 -10 -28 -13 -58 -9 -89 l6 -47 -38 -8 c-84 -15
-122 -49 -145 -128 -8 -29 4 -97 17 -97 3 0 26 11 52 24 45 23 101 76 128 122
16 26 29 11 48 -54 11 -38 12 -60 5 -79 -11 -28 0 -48 32 -58 17 -6 19 -15 17
-73 -3 -59 1 -73 26 -117 l29 -50 39 80 c49 103 53 172 10 214 -15 15 -34 30
-42 33 -12 4 -13 10 -4 24 8 14 26 20 75 24 83 6 93 13 75 48 -8 15 -26 38
-40 51 -29 27 -34 66 -10 75 9 3 36 6 60 6 28 0 47 5 50 14 6 15 -32 130 -54
164 -13 20 -22 22 -93 22 -47 0 -79 4 -79 10 0 19 185 196 219 210 27 11 44
11 95 1 34 -7 74 -9 88 -6 14 4 64 -3 112 -14 48 -12 120 -21 159 -21 155 0
306 -43 394 -112 57 -45 64 -54 59 -77 -3 -14 -9 -49 -12 -78 -6 -47 -8 -50
-25 -40 -30 18 -45 -4 -24 -36 22 -34 10 -38 -55 -16 -30 10 -66 18 -80 18
-27 1 -101 -37 -107 -55 -6 -20 117 -54 195 -54 86 0 117 -13 185 -78 61 -59
62 -75 4 -67 -51 8 -77 -10 -77 -52 0 -15 -17 -51 -37 -80 -32 -47 -37 -61
-35 -105 l2 -51 -22 19 c-48 39 -98 88 -98 96 0 4 14 29 30 55 24 38 30 58 30
102 0 71 -16 131 -35 131 -8 0 -28 -19 -45 -42 -26 -35 -30 -50 -30 -105 0
-85 -15 -79 -57 22 -38 92 -63 122 -114 135 -33 9 -98 6 -137 -6 -20 -6 13
-56 80 -120 44 -42 63 -54 88 -54 23 0 42 -10 66 -34 19 -19 34 -39 34 -44 0
-12 -42 -2 -79 17 -29 16 -82 17 -111 1 -35 -18 -60 -41 -60 -55 0 -21 152
-56 212 -49 53 6 53 5 126 -51 40 -31 79 -70 88 -87 l15 -30 -44 26 c-24 15
-59 26 -79 26 -35 0 -119 -37 -125 -55 -1 -6 31 -27 73 -48 54 -27 79 -35 92
-28 9 5 36 12 59 16 38 6 45 4 83 -31 23 -21 56 -65 73 -98 29 -56 32 -69 32
-156 0 -87 -3 -100 -31 -155 -17 -33 -34 -72 -38 -87 -3 -16 -10 -28 -14 -28
-5 0 -24 21 -42 48 -19 26 -51 66 -72 89 -43 48 -46 69 -17 133 22 50 20 74
-15 128 -31 49 -64 78 -109 97 -35 14 -37 14 -37 -2 1 -38 21 -110 42 -150 12
-23 19 -45 15 -49 -9 -9 -72 25 -97 51 -16 17 -17 26 -8 70 17 83 -26 195 -76
195 -20 0 -26 -8 -40 -61 l-18 -61 26 -37 c14 -20 26 -45 26 -55 0 -20 2 -20
-84 10 l-50 18 -48 -27 c-60 -34 -78 -34 -129 0 -22 15 -71 34 -107 44 -200
52 -293 79 -338 99 -69 30 -174 63 -357 110 -132 34 -169 47 -218 81 -57 38
-87 73 -72 82 5 2 26 8 48 12 64 11 113 44 135 90 28 58 26 73 -11 77 l-31 3
35 45 c19 25 37 55 41 68 7 21 5 22 -51 22 -37 0 -67 -6 -79 -15 -51 -39 -45
4 6 45 22 18 47 45 55 61 19 37 19 149 0 195 l-15 35 -34 -26 c-20 -15 -49
-48 -67 -73 -29 -45 -31 -51 -25 -118 6 -74 -8 -114 -40 -114 -11 0 -13 9 -8
40 8 51 -19 94 -87 139 -65 42 -73 41 -65 -14 4 -25 5 -45 2 -45 -2 0 -20 26
-40 58 -40 66 -80 107 -116 117 -58 17 -74 58 -45 115 19 36 30 38 46 8 6 -13
33 -46 58 -73 25 -28 51 -59 57 -70 5 -10 15 -16 21 -12 19 12 36 96 30 149
-7 56 -25 81 -74 105 -42 19 -42 34 2 77 58 59 122 90 220 108 125 23 150 22
352 -11z m5917 -373 c12 -46 7 -98 -11 -105 -16 -6 -120 11 -131 21 -2 3 10
22 27 43 17 21 36 44 42 51 5 6 23 12 38 12 21 0 30 -6 35 -22z m-3081 -112
c45 -19 63 -42 92 -119 22 -59 25 -83 25 -190 0 -137 -13 -234 -34 -255 -12
-12 -24 3 -87 105 -127 206 -140 216 -252 197 -65 -11 -70 -30 -22 -78 27 -27
44 -36 69 -36 32 0 86 -32 86 -50 0 -5 -19 -14 -41 -20 -34 -9 -50 -9 -83 4
-23 9 -51 16 -62 16 -46 0 -94 -87 -94 -171 l0 -52 36 6 c27 5 54 23 104 72
66 63 70 65 119 65 45 0 51 -3 51 -20 0 -11 -6 -22 -12 -24 -7 -2 -32 -9 -54
-15 -26 -7 -48 -21 -59 -37 -16 -25 -40 -162 -30 -172 2 -3 38 12 80 31 56 27
78 43 86 64 24 61 36 78 56 81 33 5 55 -37 54 -104 0 -49 -9 -74 -62 -178 -33
-67 -72 -150 -85 -186 -33 -85 -71 -150 -90 -150 -21 0 -48 49 -89 163 -53
144 -115 271 -178 368 -65 99 -97 168 -97 209 0 16 15 49 35 76 19 27 46 70
60 96 13 26 29 49 35 53 6 3 34 39 64 79 62 84 102 116 144 116 25 0 34 -7 49
-37 21 -45 65 -68 141 -76 66 -8 68 7 12 78 -21 28 -49 62 -60 78 l-21 27 41
0 c22 0 55 -6 73 -14z m-2421 -108 c-15 -15 -99 -13 -118 3 -19 16 -18 32 8
74 l21 37 51 -51 c40 -40 48 -53 38 -63z m1298 41 c69 -69 79 -97 57 -144 -9
-18 -19 -49 -23 -69 -3 -20 -10 -36 -14 -34 -17 7 -170 197 -170 212 0 17 67
96 81 96 5 0 36 -27 69 -61z m-2460 -36 c0 -22 -12 -58 -31 -92 -33 -57 -39
-96 -25 -166 10 -51 -5 -36 -29 30 -12 33 -35 66 -67 97 -30 28 -48 54 -45 62
3 7 28 19 55 25 35 9 60 24 87 51 21 22 42 37 47 34 4 -3 8 -21 8 -41z m117
23 c16 -14 38 -43 48 -65 10 -23 22 -41 27 -41 5 0 16 13 26 29 l16 29 37 -78
c29 -61 38 -94 41 -146 4 -78 -5 -86 -56 -55 -18 12 -48 21 -66 21 -38 0 -120
-48 -144 -85 -14 -21 -14 -24 0 -36 29 -24 118 -23 176 1 51 21 56 21 91 7 20
-9 37 -21 37 -27 0 -6 12 -28 26 -50 15 -22 25 -43 22 -45 -2 -3 -28 -9 -56
-15 -29 -5 -77 -21 -107 -35 -31 -14 -69 -25 -86 -25 -41 0 -133 73 -153 123
-27 64 -21 96 29 154 64 73 80 131 55 197 -13 36 -31 147 -24 157 9 15 32 10
61 -15z m4547 2 c22 -31 20 -90 -5 -149 -12 -27 -24 -49 -26 -49 -3 0 -18 8
-34 17 -26 16 -31 16 -39 3 -12 -19 -13 -66 -1 -107 5 -17 7 -34 4 -37 -9 -9
-107 63 -128 93 -41 62 -126 70 -196 19 l-44 -32 65 -16 c36 -9 74 -21 85 -27
11 -6 38 -14 61 -17 47 -8 122 -50 106 -60 -6 -3 -30 -2 -53 3 -35 8 -49 6
-81 -10 -45 -23 -58 -19 -58 21 0 19 -4 28 -12 26 -7 -3 -34 -7 -59 -10 l-47
-5 -22 55 c-13 32 -37 66 -57 83 l-34 28 51 37 c49 35 53 36 100 28 56 -10
146 3 169 24 13 12 12 16 -2 32 -29 31 -20 37 52 34 54 -3 77 1 107 17 51 26
79 26 98 -1z m-7232 -87 c-1 -46 -7 -91 -12 -101 -5 -9 -40 -27 -77 -39 -37
-12 -78 -32 -90 -43 l-22 -20 -30 22 c-17 12 -31 27 -31 35 0 7 17 40 39 72
37 55 60 75 107 87 11 4 36 22 54 41 54 55 66 45 62 -54z m6583 -141 c36 -52
90 -99 128 -112 28 -10 29 -12 23 -61 -8 -57 -24 -93 -55 -121 l-21 -19 0 54
c0 49 -4 58 -32 86 -39 36 -77 57 -86 48 -4 -4 -7 -35 -6 -70 1 -53 6 -71 32
-113 38 -58 39 -73 10 -121 l-23 -36 -3 45 c-5 61 -15 70 -82 70 l-58 0 9 -41
c13 -55 34 -105 59 -136 22 -28 26 -64 10 -94 -15 -27 -103 -69 -161 -76 -60
-7 -61 -3 -21 124 41 129 61 224 72 346 10 113 29 173 76 234 21 27 32 33 63
33 33 0 42 -5 66 -40z m-4217 4 c41 -28 92 -164 92 -243 0 -39 -22 -41 -88 -6
-26 14 -52 25 -58 25 -27 0 -34 27 -18 66 15 37 15 64 -1 142 -7 30 -6 32 22
32 15 0 39 -7 51 -16z m6107 -42 c5 -29 17 -48 50 -76 43 -35 78 -106 61 -123
-4 -4 -30 5 -57 21 -38 21 -58 26 -83 22 -33 -6 -76 -32 -76 -45 0 -4 27 -20
59 -36 45 -21 67 -26 92 -21 38 7 69 -15 69 -49 0 -40 -24 -50 -73 -31 -23 9
-66 16 -93 16 -46 0 -56 4 -98 41 -53 47 -65 44 -73 -18 -3 -27 0 -51 12 -73
27 -52 3 -59 -36 -10 -46 57 -87 80 -142 80 -40 0 -54 -6 -99 -43 -29 -24 -52
-47 -51 -51 1 -5 33 -19 70 -31 67 -23 68 -23 105 -4 20 10 49 19 63 19 28 0
75 -40 75 -64 0 -13 -6 -13 -50 0 -36 11 -55 12 -69 4 -20 -10 -51 -48 -51
-62 0 -3 24 -12 54 -19 46 -10 60 -9 99 6 47 18 81 14 91 -10 4 -12 -3 -15
-33 -15 -24 0 -44 -7 -53 -17 -16 -18 -48 -77 -48 -88 0 -3 27 -5 60 -5 59 0
59 0 90 45 34 50 37 51 64 30 38 -29 12 -66 -109 -155 -26 -19 -71 -64 -100
-100 -29 -36 -69 -74 -90 -85 l-37 -19 -44 46 c-24 26 -44 54 -44 62 0 9 15
19 38 26 35 9 81 44 71 54 -2 2 -31 15 -64 29 -86 36 -80 52 21 52 55 0 86 5
98 14 20 17 50 71 43 78 -3 3 -32 7 -66 10 -53 5 -65 2 -106 -22 -52 -30 -64
-27 -47 10 7 14 12 34 12 45 0 22 -46 80 -64 80 -19 0 -37 -85 -30 -144 5 -41
3 -59 -11 -80 -9 -14 -23 -26 -29 -26 -7 0 -31 27 -55 61 l-43 61 22 50 c20
46 21 55 9 119 -16 92 -35 93 -78 4 -17 -36 -31 -75 -31 -85 0 -11 -5 -20 -12
-20 -16 0 -88 71 -88 86 0 14 225 184 328 247 107 66 253 128 318 134 44 5 71
16 128 53 112 73 122 74 131 22z m-6976 -18 c27 -34 27 -64 1 -64 -10 0 -42
-9 -70 -20 l-50 -20 0 46 c0 66 13 84 60 84 30 0 43 -6 59 -26z m1512 -4 c26
-14 24 -32 -7 -61 -25 -24 -26 -24 -40 -5 -15 21 -19 58 -7 69 9 10 31 9 54
-3z m2231 -17 c32 -35 105 -145 117 -175 5 -13 30 -66 55 -117 25 -51 46 -101
46 -110 -1 -9 -15 -25 -33 -36 -19 -12 -43 -43 -61 -78 -23 -46 -33 -57 -53
-57 -18 0 -23 4 -19 18 25 86 17 132 -32 185 -43 45 -57 37 -87 -54 -30 -90
-29 -101 26 -170 22 -28 26 -39 16 -46 -16 -13 -181 -93 -190 -93 -4 0 -5 64
-2 142 5 139 6 142 40 198 68 111 75 135 75 256 0 97 3 115 21 138 26 33 49
33 81 -1z m2460 -44 c75 -48 62 -69 -34 -53 -36 6 -38 8 -38 45 0 47 9 48 72
8z m-2664 -68 c17 -15 22 -31 22 -66 0 -57 -10 -77 -72 -140 -48 -49 -49 -51
-46 -105 5 -93 -13 -77 -98 86 -16 31 -16 33 8 65 53 70 61 98 54 175 l-6 72
58 -33 c31 -18 67 -42 80 -54z m1889 -22 c30 -19 45 -21 113 -16 104 7 115 -1
111 -79 -4 -84 -23 -124 -58 -124 -15 0 -44 -4 -63 -9 -177 -45 -231 -53 -288
-42 -31 6 -67 8 -79 5 -29 -8 -31 14 -4 45 19 22 21 22 66 6 63 -21 81 -21
146 -2 96 28 100 60 12 98 -29 12 -54 16 -80 12 -35 -6 -37 -5 -24 11 8 10 31
26 52 37 27 13 39 27 44 49 8 36 8 36 52 9z m401 -135 c29 -20 28 -44 -2 -44
-40 0 -56 11 -56 36 0 28 24 32 58 8z m1990 -45 c17 -31 110 -180 119 -189 2
-2 9 2 14 10 16 25 5 114 -19 147 -12 17 -22 34 -22 38 0 3 19 5 42 3 37 -3
46 -8 71 -46 16 -24 46 -54 67 -68 57 -38 56 -49 -4 -83 -57 -32 -62 -39 -80
-116 -11 -48 -12 -50 -71 -71 -33 -11 -72 -26 -87 -32 -25 -10 -28 -9 -28 7 0
21 26 46 58 56 31 9 49 41 55 98 4 39 2 47 -12 47 -30 0 -135 -66 -165 -104
-28 -34 -31 -44 -29 -97 2 -58 2 -58 -40 -88 -23 -16 -51 -43 -62 -60 -34 -52
-45 -40 -45 50 0 79 1 82 31 108 114 96 125 124 51 129 -36 3 -46 -1 -67 -25
-21 -24 -26 -26 -35 -13 -5 8 -10 29 -10 46 0 25 6 34 28 43 40 17 106 77 98
89 -3 5 -19 15 -35 20 -23 8 -37 7 -65 -9 -46 -24 -46 -24 -46 9 0 78 60 86
146 20 58 -44 144 -98 157 -98 13 0 7 52 -10 87 -10 22 -35 47 -66 66 -49 30
-49 30 -26 43 41 23 68 17 87 -17z m-833 -104 c17 0 36 -4 43 -8 25 -16 8
-125 -26 -167 l-18 -23 -18 46 c-9 25 -35 62 -57 81 -45 41 -45 43 -22 68 13
14 24 17 43 12 14 -4 39 -8 55 -9z m-1120 -25 c7 -12 -72 -100 -91 -100 -21 0
-25 15 -13 50 15 41 87 77 104 50z m1590 -9 c0 -8 -29 -39 -65 -70 -36 -30
-66 -60 -68 -67 -2 -8 11 -16 32 -20 28 -5 45 -1 82 21 45 27 48 27 61 9 7
-10 13 -28 13 -41 0 -22 -2 -23 -95 -23 -52 0 -95 -3 -95 -6 0 -12 52 -73 75
-88 20 -13 33 -14 71 -6 59 13 64 7 64 -78 0 -44 -6 -75 -20 -102 -25 -50 -50
-53 -50 -7 0 17 -5 39 -10 47 -13 21 -55 -20 -76 -77 -19 -49 -47 -56 -52 -13
-2 14 -10 47 -19 73 -17 53 -65 93 -118 99 -30 3 -30 3 -26 -42 5 -67 23 -102
79 -149 79 -67 95 -137 25 -110 -37 14 -70 11 -113 -11 -26 -13 -59 -20 -96
-20 -47 0 -69 -7 -121 -35 -65 -36 -100 -42 -132 -26 -9 5 -43 48 -75 94 -52
76 -57 86 -45 105 8 12 26 27 42 33 24 10 32 9 54 -8 33 -24 40 -38 48 -86 6
-40 39 -82 55 -72 6 3 13 24 16 46 6 35 10 40 28 35 12 -2 38 -8 60 -12 37 -6
38 -6 31 17 -26 85 -58 119 -110 119 -47 0 -105 17 -105 31 0 22 80 94 154
138 173 103 343 216 386 256 25 23 54 47 65 54 26 14 50 10 50 -8z m-2325 -30
c0 -11 -9 -23 -21 -26 -31 -10 -37 4 -10 26 29 24 31 24 31 0z m500 -16 c11
-13 11 -39 2 -135 -15 -147 -22 -166 -71 -174 -64 -10 -93 -6 -138 19 -64 38
-60 44 38 60 21 3 47 17 63 34 l28 29 -51 26 c-63 33 -99 33 -162 1 l-50 -26
-42 23 c-23 13 -42 28 -42 33 0 12 135 80 190 96 107 30 216 37 235 14z m420
-5 c60 -31 62 -44 5 -37 -42 6 -52 4 -82 -18 -28 -22 -63 -71 -63 -90 0 -14
102 -3 145 16 35 16 60 20 94 16 40 -4 53 -12 97 -60 57 -61 74 -102 51 -125
-20 -19 -33 -9 -41 32 -8 39 -41 86 -62 86 -11 0 -14 -15 -14 -61 0 -56 3 -65
35 -100 19 -22 35 -46 35 -54 0 -30 -51 -174 -71 -199 -26 -33 -59 -35 -59 -3
0 13 -13 43 -29 67 l-29 44 24 31 c14 18 24 45 24 64 0 39 -27 94 -43 88 -7
-2 -25 -29 -40 -60 -40 -79 -67 -74 -67 12 0 38 -28 75 -77 100 -43 22 -46 16
-39 -61 6 -77 4 -73 86 -136 17 -13 35 -33 41 -43 10 -19 8 -20 -49 -13 -57 6
-59 5 -86 -26 -31 -37 -30 -50 5 -67 38 -20 80 -15 120 13 24 16 47 24 66 22
25 -3 28 -8 31 -42 5 -53 -12 -88 -67 -139 -40 -37 -60 -47 -119 -61 -39 -9
-89 -16 -112 -16 -38 0 -42 3 -56 35 -13 32 -13 48 0 138 8 56 19 115 25 130
6 16 11 57 11 92 0 65 28 204 50 246 22 42 111 158 137 179 33 25 73 25 123 0z
m-1885 -286 c187 -375 198 -414 154 -526 -11 -29 -32 -100 -45 -158 -46 -197
-121 -341 -184 -355 -37 -9 -96 38 -166 132 -33 43 -150 168 -260 278 -111
110 -209 215 -219 234 -11 22 -16 53 -15 85 3 67 1 142 -4 171 -3 18 7 34 44
69 52 48 81 56 114 31 36 -27 56 -69 56 -117 0 -38 6 -54 28 -79 l28 -31 47
80 c26 43 47 86 47 93 0 27 -32 61 -76 79 -24 11 -44 26 -44 33 0 18 28 43 62
56 25 9 33 6 83 -38 37 -32 68 -50 93 -55 59 -9 92 -7 92 7 -1 23 -70 106
-102 123 -43 22 -43 21 -28 39 7 9 29 15 54 15 24 0 53 8 71 20 56 38 62 32
170 -186z m-1175 106 c14 -9 26 -25 28 -34 3 -13 -6 -16 -48 -16 -62 0 -120
25 -120 50 0 33 94 33 140 0z m2225 -12 c20 -24 22 -33 17 -125 -4 -79 -1
-106 12 -131 9 -18 22 -32 29 -32 24 0 57 74 57 129 0 66 18 67 53 2 34 -62
34 -92 -3 -156 -25 -44 -28 -56 -20 -84 13 -48 59 -121 74 -121 22 0 36 56 36
141 0 127 34 115 45 -16 12 -150 12 -155 -32 -250 -42 -91 -86 -260 -98 -370
-8 -75 -22 -120 -41 -136 -12 -10 -24 -1 -70 50 -31 33 -62 61 -69 61 -30 0
-34 -113 -5 -170 24 -47 24 -50 5 -50 -9 0 -38 20 -64 45 -61 57 -112 67 -185
35 -40 -17 -52 -18 -62 -8 -7 7 -36 68 -63 135 -28 67 -69 160 -92 205 -85
169 -169 371 -169 408 0 39 34 151 58 187 17 28 73 63 98 63 26 0 74 -50 74
-78 0 -13 -16 -42 -35 -64 -37 -44 -52 -103 -40 -157 8 -35 10 -36 56 -17 60
25 82 54 76 97 -6 44 -1 52 23 39 15 -8 27 -31 43 -80 3 -9 -6 -41 -19 -70
-13 -30 -23 -70 -24 -88 0 -33 27 -92 42 -92 15 0 38 46 38 77 0 38 14 43 31
11 7 -14 10 -46 6 -91 -6 -64 -4 -72 20 -103 14 -19 30 -34 35 -34 11 0 68
123 68 148 0 10 -20 38 -45 62 -42 41 -57 70 -36 70 5 0 25 -7 44 -15 20 -8
55 -15 77 -15 37 0 41 2 38 22 -4 32 -114 107 -155 108 -27 0 -36 6 -53 38
-11 20 -28 48 -37 61 l-18 24 30 -8 c17 -4 61 -9 99 -12 l69 -5 -7 29 c-17 68
-93 116 -181 116 -53 -1 -64 3 -96 31 -19 17 -43 36 -53 41 -11 7 -15 16 -10
28 8 21 97 68 174 91 30 9 66 25 80 36 21 17 36 20 89 17 54 -3 67 -7 86 -29z
m-2093 -116 c34 -14 134 -159 126 -183 -2 -5 -45 31 -97 82 -72 69 -91 93 -80
100 16 10 27 10 51 1z m2450 -111 c25 -22 30 -33 22 -41 -14 -14 -39 -3 -68
28 -17 20 -15 42 4 42 6 0 24 -13 42 -29z m869 -33 c22 -12 39 -25 39 -29 0
-16 -56 -50 -108 -65 -46 -14 -56 -14 -63 -3 -13 20 0 92 19 107 24 18 70 15
113 -10z m153 -161 c19 -23 49 -72 65 -107 17 -36 49 -99 71 -140 63 -117 90
-211 90 -308 0 -45 -2 -82 -5 -82 -3 0 -23 9 -44 20 -22 11 -57 22 -79 26 -33
5 -44 2 -61 -15 -24 -24 -25 -22 -36 44 -15 89 -50 122 -142 131 l-60 7 -21
59 c-12 33 -20 64 -17 69 9 14 54 -9 103 -51 24 -22 49 -40 53 -40 21 0 7 69
-21 112 -34 51 -60 71 -105 82 -40 10 -115 84 -115 113 0 20 12 26 103 54 56
17 113 40 127 50 38 28 55 23 94 -24z m646 -108 c25 -11 77 -24 117 -28 60 -6
79 -12 110 -38 47 -37 57 -69 20 -59 -14 3 -32 8 -40 12 -18 6 -117 -72 -134
-107 -12 -22 -10 -24 15 -30 46 -11 132 -10 154 2 12 6 32 24 46 40 13 16 28
29 33 29 25 0 41 -75 37 -165 -6 -130 -37 -188 -177 -332 l-109 -112 -23 47
c-12 26 -39 77 -61 114 -44 77 -46 88 -17 114 17 16 20 26 14 64 -8 56 -36
119 -62 143 -20 17 -21 17 -43 -35 -13 -29 -25 -79 -28 -111 -5 -63 -7 -64
-71 -33 -30 14 -36 26 -50 101 -6 33 -24 96 -41 140 -35 95 -40 180 -12 214
40 48 242 67 322 30z m-1015 -54 c14 -13 25 -30 25 -38 0 -7 -19 -31 -41 -52
-67 -64 -119 -135 -119 -161 0 -21 5 -24 35 -24 72 0 145 56 145 112 0 30 19
30 34 0 27 -52 22 -92 -18 -156 -34 -57 -48 -116 -26 -116 26 0 78 30 94 54
14 22 20 25 32 15 20 -16 18 -55 -6 -118 l-21 -53 21 -39 c11 -22 20 -55 20
-74 0 -54 27 -45 54 18 38 85 38 100 11 173 -40 105 -29 141 20 64 26 -41 116
-97 136 -84 11 6 89 -62 89 -78 0 -4 -33 -23 -73 -41 -66 -31 -74 -37 -86 -75
-12 -34 -12 -50 0 -101 7 -34 17 -61 22 -61 5 0 29 19 52 43 31 31 47 58 60
102 9 33 22 66 28 74 13 15 77 45 83 38 2 -2 -5 -27 -16 -55 -23 -60 -26 -102
-7 -102 6 0 26 9 42 20 17 11 33 20 36 20 15 0 17 -48 7 -116 l-11 -72 66
-132 c60 -117 79 -170 61 -170 -3 0 -30 21 -60 46 -44 38 -54 52 -54 78 0 62
-82 158 -110 129 -5 -4 -12 -25 -15 -45 -6 -32 -3 -40 19 -61 24 -22 36 -57
19 -57 -4 0 -33 7 -66 17 -46 13 -61 22 -69 42 -27 71 -43 92 -83 111 -23 11
-44 20 -48 20 -4 0 -7 -20 -7 -44 0 -36 5 -49 25 -64 14 -11 25 -25 25 -31 0
-19 -61 -12 -97 10 -25 16 -44 20 -69 16 -39 -7 -124 -53 -124 -67 0 -18 83
-70 110 -70 15 0 47 9 71 20 47 21 99 26 99 10 0 -5 -21 -21 -47 -34 -27 -13
-59 -36 -73 -51 -24 -26 -25 -27 -6 -41 48 -34 136 -4 196 67 36 43 46 49 81
49 28 0 39 -4 39 -15 0 -8 -6 -15 -14 -15 -33 0 -68 -45 -73 -94 -6 -47 -5
-48 18 -41 47 14 119 58 149 91 17 19 37 34 46 34 46 0 110 -80 144 -181 18
-53 21 -77 16 -139 -14 -153 -26 -174 -219 -376 -101 -106 -252 -234 -275
-234 -14 0 -32 80 -32 137 0 82 40 223 63 223 5 0 25 -13 44 -30 25 -22 44
-30 73 -30 21 0 42 5 45 10 4 6 -7 33 -25 59 -22 35 -43 54 -70 65 -36 14 -40
19 -40 51 0 45 18 45 63 0 25 -25 44 -35 66 -35 40 0 101 25 101 41 0 7 -20
32 -45 55 -53 48 -47 54 41 47 61 -6 62 -5 105 34 47 44 46 57 -7 79 -48 20
-79 17 -127 -10 -23 -13 -66 -27 -96 -30 l-54 -7 6 31 c8 36 -8 74 -39 95 -22
14 -24 13 -49 -28 -28 -48 -31 -84 -13 -133 10 -29 9 -37 -15 -73 -15 -23 -31
-41 -36 -41 -5 0 -20 19 -33 42 -31 57 -64 75 -115 63 -27 -7 -39 -16 -41 -30
-4 -31 55 -93 118 -123 75 -37 82 -60 46 -148 -14 -36 -33 -94 -41 -127 -13
-57 -13 -64 5 -105 31 -70 27 -155 -10 -217 -39 -66 -46 -74 -104 -118 -39
-29 -58 -37 -92 -37 -80 0 -213 68 -243 123 -12 22 -11 36 4 101 12 52 16 98
13 152 -8 129 32 282 137 519 34 78 66 152 70 165 4 14 16 37 26 52 14 18 19
44 19 87 0 58 -1 61 -24 61 -47 0 -69 -31 -74 -104 -2 -36 -7 -66 -11 -66 -4
0 -22 11 -41 25 -36 27 -72 31 -116 15 -23 -9 -32 -6 -71 24 -60 47 -84 80
-90 125 -5 36 -3 39 27 49 41 15 62 4 119 -60 36 -40 104 -88 126 -88 3 0 5
18 5 40 0 49 -44 103 -98 121 -53 17 -56 23 -28 56 34 41 50 43 132 22 56 -15
80 -17 123 -9 30 6 56 10 58 10 1 0 0 7 -4 15 -9 25 -63 49 -123 55 l-55 5 23
23 c25 25 75 29 149 10 44 -11 50 -9 100 18 29 15 53 31 53 34 0 15 -153 100
-181 100 -4 0 -43 -31 -85 -69 -43 -39 -81 -68 -86 -65 -4 3 -5 23 -2 45 7 44
-20 133 -39 126 -6 -2 -20 -15 -31 -30 -15 -21 -19 -41 -18 -104 0 -68 -3 -83
-25 -115 -14 -21 -32 -38 -39 -38 -19 0 -18 61 1 124 17 55 15 61 -15 51 -36
-11 -80 -82 -80 -130 0 -64 -46 -105 -69 -62 -27 52 -30 87 -12 130 24 53 55
82 111 102 40 14 130 88 130 107 0 12 -67 27 -92 20 -13 -3 -38 -14 -55 -25
l-33 -19 0 26 c0 34 53 93 91 101 35 8 92 -26 140 -84 24 -30 31 -33 39 -21
21 32 8 73 -38 122 -27 29 -27 35 -2 38 43 6 61 -2 90 -42 31 -43 124 -128
141 -128 16 0 10 113 -9 150 -27 54 -73 75 -157 73 -38 -1 -78 0 -89 3 -16 5
-15 9 13 38 30 30 31 36 31 114 0 45 -3 82 -6 82 -3 0 -21 -7 -39 -16 -61 -28
-115 -120 -115 -192 0 -43 -9 -56 -64 -96 -22 -17 -47 -47 -58 -72 -10 -24
-22 -44 -26 -44 -4 0 -13 34 -20 77 -6 42 -14 79 -17 81 -12 12 -76 -65 -91
-110 -15 -45 -37 -68 -65 -68 -18 0 -4 191 19 267 26 82 52 121 118 182 61 56
101 71 189 71 71 0 111 19 198 91 70 58 112 65 152 24z m-1703 -290 c21 -49
46 -123 54 -164 9 -41 27 -104 41 -140 24 -64 26 -76 30 -336 2 -148 2 -279
-1 -291 -3 -11 -17 -33 -30 -47 -21 -22 -34 -27 -75 -27 -43 0 -57 6 -108 45
-69 51 -140 125 -152 158 -5 13 -17 64 -26 113 -14 76 -15 100 -4 169 17 116
53 227 94 293 19 32 35 65 35 75 0 15 48 190 65 235 12 33 40 2 77 -83z
m-2066 28 c-2 -10 -8 -38 -11 -63 -11 -66 -21 -80 -60 -80 -18 0 -55 -9 -81
-20 -26 -11 -49 -19 -51 -16 -2 2 -7 20 -10 40 -5 31 -1 42 23 67 35 37 74 59
106 59 13 1 34 7 48 15 33 19 42 18 36 -2z m4590 -238 c33 -13 36 -18 29 -42
-3 -16 -10 -57 -15 -93 -4 -36 -11 -73 -15 -82 -11 -27 16 -22 63 11 26 19 43
41 47 60 8 39 18 39 44 2 65 -90 77 -189 40 -302 -18 -53 -23 -94 -26 -234 -4
-188 -8 -215 -26 -215 -8 0 -17 28 -25 81 -6 44 -26 119 -43 167 -110 304
-119 343 -119 525 0 75 2 137 5 137 3 0 22 -7 41 -15z m-1376 -298 c-24 -98
-26 -100 -59 -83 -16 9 -31 22 -34 30 -8 20 15 108 37 140 l17 27 26 -32 c26
-30 26 -32 13 -82z m-680 83 c45 -23 79 -25 126 -8 27 10 37 9 59 -6 l27 -18
-61 -62 c-33 -34 -61 -66 -61 -72 0 -6 12 -16 26 -23 26 -11 26 -12 9 -39 -10
-15 -27 -37 -39 -50 -19 -22 -21 -22 -34 -5 -46 61 -129 262 -119 288 8 20 20
19 67 -5z m440 -175 c13 -24 11 -28 -37 -78 -27 -29 -60 -65 -72 -82 -21 -28
-21 -30 -4 -36 10 -4 45 -8 79 -8 74 -1 99 20 113 93 5 26 13 52 18 57 17 17
71 -38 119 -120 93 -157 131 -212 201 -290 122 -136 140 -194 98 -306 -15 -38
-30 -97 -33 -130 -8 -69 -23 -78 -87 -51 l-36 16 36 65 c31 56 36 71 30 104
-10 58 -23 65 -73 35 -33 -20 -45 -35 -59 -74 -10 -28 -23 -50 -29 -50 -21 0
-74 80 -74 113 0 8 18 22 40 32 23 10 55 34 72 53 28 33 30 39 26 99 -3 41
-10 69 -21 80 -15 15 -19 13 -61 -28 -35 -36 -46 -54 -51 -92 -5 -30 -12 -47
-21 -47 -19 0 -27 42 -20 104 7 51 5 55 -32 102 -59 74 -79 89 -96 75 -8 -7
-21 -32 -30 -56 -21 -62 -7 -105 53 -164 45 -43 70 -86 57 -98 -3 -3 -26 9
-52 26 -53 35 -95 39 -150 16 -31 -13 -34 -17 -24 -35 16 -30 79 -69 140 -87
87 -25 108 -39 136 -94 14 -28 23 -53 20 -56 -2 -3 -20 0 -38 6 -24 8 -46 8
-83 -2 -67 -16 -70 -38 -10 -76 58 -37 105 -45 165 -30 46 12 52 11 119 -19
39 -18 84 -32 101 -32 41 0 54 -28 46 -104 -8 -79 -37 -136 -96 -189 -41 -37
-64 -48 -142 -70 -114 -31 -223 -42 -277 -27 -51 13 -91 61 -134 160 -32 74
-32 76 -33 245 0 94 -4 217 -9 275 -4 58 -9 123 -10 145 -4 82 15 283 34 356
22 86 125 286 150 292 9 3 19 5 22 6 3 0 12 -10 19 -24z m635 -504 c36 -21 43
-46 19 -72 -22 -25 -31 -24 -40 4 -3 12 -24 41 -45 64 -22 24 -39 45 -39 48 0
7 65 -20 105 -44z m1544 -20 c10 -10 31 -46 46 -80 25 -55 32 -62 68 -72 l40
-10 -7 -46 c-3 -25 -6 -52 -6 -61 0 -12 -9 -13 -52 -7 -29 5 -136 9 -238 10
-235 3 -240 3 -240 16 0 20 115 140 169 176 48 32 173 92 194 93 4 0 16 -9 26
-19z m-3794 -105 c54 -39 63 -50 88 -116 15 -40 26 -74 24 -76 -2 -2 -41 10
-88 26 -46 17 -85 30 -85 30 -1 0 -4 21 -7 48 -3 26 -8 59 -12 74 -8 29 -1 58
13 58 4 0 35 -20 67 -44z m556 -168 c59 -74 89 -124 117 -193 24 -59 24 -60 6
-111 -16 -49 -16 -56 -1 -117 11 -45 14 -87 10 -135 -4 -50 -1 -83 10 -116 9
-25 12 -48 8 -50 -4 -3 -27 4 -50 16 -103 51 -182 220 -268 576 -4 17 -1 22
16 22 14 0 31 -17 55 -53 36 -57 82 -100 97 -91 5 3 9 28 9 55 0 73 -42 155
-86 169 -19 7 -37 16 -40 22 -8 12 43 58 63 58 7 0 31 -24 54 -52z m2273 -580
c13 -19 23 -68 13 -68 -4 0 -101 -37 -142 -55 l-40 -17 56 58 c31 33 61 69 68
82 15 28 26 28 45 0z m-1934 -1562 c-17 -216 -21 -246 -34 -246 -20 0 -36 47
-36 106 0 30 -5 64 -10 74 -17 31 4 130 41 195 30 53 33 56 41 35 5 -13 4 -85
-2 -164z"/>
</g>
</svg>
